<?xml version="1.0" standalone="no"?>
<!DOCTYPE svg PUBLIC "-//W3C//DTD SVG 1.1//EN" "http://www.w3.org/Graphics/SVG/1.1/DTD/svg11.dtd" >
<svg xmlns="http://www.w3.org/2000/svg" xmlns:xlink="http://www.w3.org/1999/xlink" version="1.1">
<metadata>
Created by FontForge 20170731 at Mon Mar 31 14:55:12 2014
 By Aleksey,,,
All rights reserved. Leo Burnette Qatar.
</metadata>
<defs>
<font id="ooredoo-Regular" horiz-adv-x="580" >
  <font-face 
    font-family="ooredoo-Regular"
    font-weight="400"
    font-stretch="normal"
    units-per-em="1000"
    panose-1="2 0 5 6 0 0 0 2 0 4"
    ascent="800"
    descent="-200"
    x-height="513"
    cap-height="700"
    bbox="-38 -264 1061 1096"
    underline-thickness="50"
    underline-position="-150"
    unicode-range="U+0020-2212"
  />
<missing-glyph horiz-adv-x="426" 
 />
    <glyph glyph-name=".notdef" horiz-adv-x="426" 
 />
    <glyph glyph-name=".null" horiz-adv-x="0" 
 />
    <glyph glyph-name="nonmarkingreturn" horiz-adv-x="426" 
 />
    <glyph glyph-name="space" unicode=" " horiz-adv-x="345" 
 />
    <glyph glyph-name="space" unicode="&#xa0;" horiz-adv-x="345" 
 />
    <glyph glyph-name="exclam" unicode="!" horiz-adv-x="206" 
d="M66 700h67v-513h-67v513zM55 44q0 20 14 34t34 14t34 -14t14 -34t-14 -34t-34 -14t-34 14t-14 34z" />
    <glyph glyph-name="quotedbl" unicode="&#x22;" horiz-adv-x="274" 
d="M50 700h52v-226h-52v226zM172 700h52v-226h-52v226z" />
    <glyph glyph-name="numbersign" unicode="#" horiz-adv-x="641" 
d="M129 177h-109l14 65h107l37 216h-119l14 65h114l32 177h70l-30 -177h183l30 177h70l-30 -177h109l-11 -65h-109l-37 -216h118l-11 -65h-118l-31 -177h-70l30 177h-182l-31 -177h-70zM393 242l37 216h-182l-37 -216h182z" />
    <glyph glyph-name="dollar" unicode="$" horiz-adv-x="599" 
d="M340 -99h-62v94q-61 5 -128.5 25t-124.5 56l41 59q45 -29 100 -46.5t112 -23.5v266q-39 10 -76.5 22.5t-67 32t-47.5 49t-18 74.5q0 86 55.5 139t153.5 61v49h62v-48q46 -3 97.5 -15.5t102.5 -33.5l-37 -59q-38 15 -79.5 24t-83.5 12v-257l9 -2q42 -11 82 -24.5t72 -33.5
t51.5 -49t19.5 -71q0 -49 -17 -87t-47.5 -64.5t-74 -41t-95.5 -16.5v-91zM506 190q0 22 -14.5 40.5t-38 33.5t-53.5 27t-60 22v-251q81 2 123.5 39t42.5 89zM140 520q0 -26 11 -44.5t30 -33t44 -24.5t53 -19v238q-27 -2 -51.5 -9.5t-44 -21.5t-31 -35t-11.5 -51z" />
    <glyph glyph-name="percent" unicode="%" horiz-adv-x="760" 
d="M593 700h78l-513 -700h-79zM182 707q34 0 63 -13t50 -34.5t33 -51t12 -62.5t-13 -62t-34.5 -51t-50.5 -35t-61 -13q-33 0 -62 13t-51 35.5t-35 52t-13 62.5q0 34 12.5 63t34 50.5t51 33.5t64.5 12zM182 642q-43 0 -70 -26.5t-27 -68.5q0 -20 7.5 -37.5t20.5 -30.5
t30.5 -21t36.5 -8q20 0 37.5 8t30 22t20 32t7.5 39q0 19 -7.5 35.5t-20 29t-29.5 19.5t-36 7zM582 309q34 0 63 -13t50 -34.5t33 -51t12 -62.5t-13 -62t-34.5 -51t-50.5 -35t-61 -13q-33 0 -62 13t-51 35.5t-35 52t-13 62.5q0 34 12.5 63t34 50.5t51 33.5t64.5 12zM582 244
q-43 0 -70 -26.5t-27 -68.5q0 -20 7.5 -37.5t20.5 -30.5t30.5 -21t36.5 -8q20 0 37.5 8t30 22t20 32t7.5 39q0 19 -7.5 35.5t-20 29t-29.5 19.5t-36 7z" />
    <glyph glyph-name="ampersand" unicode="&#x26;" horiz-adv-x="651" 
d="M481 106l-65 -64q-33 -33 -74 -49.5t-84.5 -16.5t-84.5 16t-74 49t-47.5 75t-10 87t27.5 89t66 79l62 51l-17 18q-29 32 -49 59.5t-20 59.5q0 31 11.5 58t32 47t47.5 32t57 12q31 0 58 -12t47 -32t32 -47t12 -58q0 -42 -24.5 -71t-56.5 -52l-31 -22l187 -207l98 100
l50 -50l-101 -102l99 -109l-52 -46zM434 158l-187 215l-64 -54q-38 -32 -56 -63t-20.5 -60.5t9 -55.5t34.5 -48q22 -23 50.5 -34.5t58 -11.5t58 11.5t50.5 33.5zM181 559q0 -12 6 -23.5t14.5 -21.5t18 -18.5t16.5 -15.5l14 -15q8 5 22.5 13.5t29 20.5t25 27t10.5 33
q0 32 -23 55t-55 23q-16 0 -30.5 -6t-25 -16.5t-16.5 -25t-6 -30.5z" />
    <glyph glyph-name="quotesingle" unicode="'" horiz-adv-x="152" 
d="M50 700h52v-226h-52v226z" />
    <glyph glyph-name="parenleft" unicode="(" horiz-adv-x="330" 
d="M281 -132q-50 28 -93.5 73.5t-75 101t-49.5 117t-18 120.5q0 57 16 117.5t46.5 116.5t75 103.5t101.5 79.5l25 -52q-45 -28 -82 -69t-63.5 -89t-40.5 -101t-14 -106q0 -51 14.5 -104t41 -101t63.5 -88.5t82 -67.5z" />
    <glyph glyph-name="parenright" unicode=")" horiz-adv-x="330" 
d="M45 -81q45 27 82 67.5t63.5 88.5t41 101t14.5 104q0 53 -14 106t-40.5 101t-63.5 89t-82 69l25 52q57 -32 101.5 -79.5t75 -103.5t46.5 -116.5t16 -117.5q0 -59 -18 -120.5t-49.5 -117t-75 -101t-93.5 -73.5z" />
    <glyph glyph-name="asterisk" unicode="*" horiz-adv-x="294" 
d="M286 539h-94l50 -83l-44 -26l-50 84l-49 -84l-45 26l50 83h-96v49h96l-50 84l45 26l49 -84l50 84l44 -26l-50 -84h94v-49z" />
    <glyph glyph-name="plus" unicode="+" horiz-adv-x="563" 
d="M248 316h-208v65h208v206h67v-206h208v-65h-208v-206h-67v206z" />
    <glyph glyph-name="comma" unicode="," horiz-adv-x="245" 
d="M129 -13q-17 3 -32 17t-15 32q0 20 14.5 34.5t34.5 14.5t34.5 -14.5t14.5 -34.5q0 -29 -4.5 -52t-16.5 -40.5t-32 -30t-51 -20.5l-11 32q29 11 45 25.5t19 36.5z" />
    <glyph glyph-name="hyphen" unicode="-" horiz-adv-x="401" 
d="M371 326v-66h-341v66h341z" />
    <glyph glyph-name="period" unicode="." horiz-adv-x="228" 
d="M65 36q0 20 14.5 34.5t34.5 14.5t34.5 -14.5t14.5 -34.5t-14.5 -34.5t-34.5 -14.5t-34.5 14.5t-14.5 34.5z" />
    <glyph glyph-name="slash" unicode="/" horiz-adv-x="335" 
d="M7 -73l254 825h67l-254 -825h-67z" />
    <glyph glyph-name="zero" unicode="0" horiz-adv-x="541" 
d="M418 493q0 31 -11.5 57.5t-32 46.5t-48 31.5t-58.5 11.5t-58 -11.5t-47 -31.5t-31.5 -46.5t-11.5 -57.5v-290q0 -31 11.5 -58.5t31.5 -48t47 -32.5t58 -12t58.5 12t48 32.5t32 48t11.5 58.5v290zM268 709q45 0 85 -17.5t69.5 -47t46.5 -69t17 -82.5v-290q0 -45 -17 -84.5
t-46.5 -68.5t-69.5 -46t-85 -17q-44 0 -82.5 17t-67.5 46t-46 68.5t-17 84.5v290q0 43 17 82.5t46 69t67.5 47t82.5 17.5z" />
    <glyph glyph-name="one" unicode="1" horiz-adv-x="423" 
d="M90 700h119h49v-700h-67v634h-101v66z" />
    <glyph glyph-name="two" unicode="2" horiz-adv-x="527" 
d="M138 65h339v-65h-432v65l324 320q18 22 30.5 49t12.5 57q0 31 -12 58.5t-33 48t-49 32t-59 11.5q-30 0 -57 -11.5t-47.5 -32t-32.5 -48t-12 -58.5h-65q0 45 17 84.5t46 69t68 47t83 17.5q46 0 85.5 -17.5t69 -47t46.5 -69t17 -84.5t-16.5 -83t-45.5 -68z" />
    <glyph glyph-name="three" unicode="3" horiz-adv-x="579" 
d="M312 425q38 -3 74 -20t64.5 -45.5t46 -67.5t17.5 -85q0 -47 -17.5 -87t-47.5 -69.5t-70 -46.5t-84 -17t-84 17t-70 46.5t-48 69.5t-18 87h71q0 -33 11 -61.5t31 -49.5t47 -33.5t60 -12.5q32 0 59.5 12.5t47 33.5t30.5 49.5t11 61.5q0 27 -9 54t-28 49.5t-47.5 36.5
t-67.5 14h-72v67l191 206h-327v66h419v-70z" />
    <glyph glyph-name="four" unicode="4" horiz-adv-x="505" 
d="M475 109h-101v-109h-70v109h-264v62l202 529h71l-203 -529h194v187h70v-187h101v-62z" />
    <glyph glyph-name="five" unicode="5" horiz-adv-x="539" 
d="M275 426q40 0 79 -16t70 -45t50.5 -69t19.5 -89q0 -47 -17.5 -87t-47.5 -69.5t-70 -46.5t-84 -17t-84 17t-70 46.5t-48 69.5t-18 87h71q0 -33 11 -61.5t31 -49.5t47 -33.5t60 -12.5q32 0 59.5 12.5t47 33.5t30.5 49.5t11 61.5q0 27 -9.5 52t-27 45.5t-42 34t-54.5 16.5
h-164h-27l131 345h264v-66h-218l-80 -208h79z" />
    <glyph glyph-name="six" unicode="6" horiz-adv-x="566" 
d="M292 50q32 0 59.5 12.5t47.5 33.5t31 49t11 60t-11 59.5t-31 47.5t-47.5 31t-59.5 11q-29 0 -56 -11t-47.5 -31t-32.5 -47.5t-12 -59.5t12 -60t32.5 -49t47.5 -33.5t56 -12.5zM292 424q47 0 87 -18t69.5 -48t46 -69.5t16.5 -83.5t-16.5 -83.5t-46 -69.5t-69.5 -47.5
t-87 -17.5q-44 0 -83 17.5t-69 47.5t-47.5 69.5t-17.5 83.5q0 18 4.5 39.5t10.5 38.5l165 418h62l-110 -301q23 11 42.5 17.5t42.5 6.5z" />
    <glyph glyph-name="seven" unicode="7" horiz-adv-x="552" 
d="M55 700h437v-69l-240 -631h-72l244 634h-369v66z" />
    <glyph glyph-name="eight" unicode="8" horiz-adv-x="530" 
d="M272 49q32 0 59 12.5t46.5 33.5t30.5 49t11 60q0 29 -11 56t-30.5 47.5t-46.5 33t-59 12.5t-59 -12.5t-46.5 -33t-30.5 -47.5t-11 -56q0 -32 11 -60t30.5 -49t46.5 -33.5t59 -12.5zM272 639q-23 0 -44 -8.5t-37 -23t-25.5 -34.5t-9.5 -43t9.5 -43t25.5 -34.5t37 -22.5
t44 -8q48 0 78.5 30.5t30.5 77.5t-30.5 78t-78.5 31zM381 391q47 -30 78 -79t31 -108q0 -47 -17.5 -86.5t-47.5 -68.5t-69.5 -45.5t-83.5 -16.5t-83 16.5t-69 45.5t-47.5 68.5t-17.5 86.5q0 59 30.5 108t78.5 79q-29 23 -49.5 60.5t-20.5 78.5q0 38 13.5 70.5t37.5 56.5
t56.5 38t70.5 14t70.5 -14t56.5 -38t38 -56.5t14 -70.5q0 -41 -20.5 -78.5t-49.5 -60.5z" />
    <glyph glyph-name="nine" unicode="9" horiz-adv-x="526" 
d="M264 646q-32 0 -59.5 -12.5t-47.5 -33.5t-31 -49t-11 -60t11 -59.5t31 -47.5t47.5 -31t59.5 -11q29 0 56 11t47.5 31t32.5 47.5t12 59.5t-12 60t-32.5 49t-47.5 33.5t-56 12.5zM241 0l108 296q-23 -11 -42.5 -17.5t-42.5 -6.5q-47 0 -87.5 18t-69.5 48t-45.5 69.5
t-16.5 83.5t16.5 83.5t45.5 69.5t69.5 47.5t87.5 17.5q43 0 82.5 -17.5t69.5 -47.5t47.5 -69.5t17.5 -83.5q0 -18 -4.5 -39.5t-10.5 -38.5l-163 -413h-62z" />
    <glyph glyph-name="colon" unicode=":" horiz-adv-x="228" 
d="M65 36q0 20 14.5 34.5t34.5 14.5t34.5 -14.5t14.5 -34.5t-14.5 -34.5t-34.5 -14.5t-34.5 14.5t-14.5 34.5zM65 350q0 20 14.5 34.5t34.5 14.5t34.5 -14.5t14.5 -34.5t-14.5 -34.5t-34.5 -14.5t-34.5 14.5t-14.5 34.5z" />
    <glyph glyph-name="semicolon" unicode=";" horiz-adv-x="199" 
d="M63 348q0 20 14.5 34.5t34.5 14.5t34.5 -14.5t14.5 -34.5t-14.5 -34.5t-34.5 -14.5t-34.5 14.5t-14.5 34.5zM109 -13q-17 3 -32 17t-15 32q0 20 14.5 34.5t34.5 14.5t34.5 -14.5t14.5 -34.5q0 -29 -4.5 -52t-16.5 -40.5t-32 -30t-51 -20.5l-11 32q29 11 45 25.5t19 36.5z
" />
    <glyph glyph-name="less" unicode="&#x3c;" horiz-adv-x="470" 
d="M45 213v77l397 172v-77l-308 -134l308 -133v-77z" />
    <glyph glyph-name="equal" unicode="=" horiz-adv-x="536" 
d="M506 264v-66h-476v66h476zM506 489v-66h-476v66h476z" />
    <glyph glyph-name="greater" unicode="&#x3e;" horiz-adv-x="465" 
d="M40 41v77l308 133l-308 134v77l397 -172v-77z" />
    <glyph glyph-name="question" unicode="?" horiz-adv-x="503" 
d="M250 708q43 0 80 -16t64.5 -43.5t43 -64t15.5 -77.5q0 -38 -13 -72t-36 -61t-54 -45t-67 -24v-118h-67v182h34q28 0 53.5 11t44 29.5t29.5 43.5t11 54q0 28 -11 52t-29.5 42t-44 28t-53.5 10t-52 -10t-42 -28t-28 -42t-10 -52h-68q0 41 16 77.5t43 64t63.5 43.5t77.5 16z
M205 44q0 20 14 34t34 14t34 -14t14 -34t-14 -34t-34 -14t-34 14t-14 34z" />
    <glyph glyph-name="at" unicode="@" horiz-adv-x="846" 
d="M820 304q0 -66 -17.5 -112.5t-43.5 -75t-56 -40t-56 -6.5t-43.5 25.5t-17.5 56.5q-26 -36 -67 -59.5t-93 -23.5q-47 0 -88.5 18t-72 48.5t-48.5 72t-18 88.5t18 88.5t48.5 72.5t72 49t88.5 18q52 0 93 -25.5t66 -60.5v75h56l-1 -323q0 -45 21 -58t46.5 2.5t46.5 58.5
t21 111q0 71 -27 133t-73 108.5t-108.5 73t-132.5 26.5q-69 0 -130.5 -26.5t-107.5 -73t-72.5 -108.5t-26.5 -133q0 -69 26.5 -130t72.5 -107t107.5 -72.5t130.5 -26.5q41 0 79 8t73 25v-51q-69 -28 -152 -28q-80 0 -150 30t-122 81.5t-82 121t-30 149.5q0 81 30 152
t82 123.5t122 82.5t150 30q81 0 151.5 -30t122.5 -82.5t82 -123.5t30 -152zM255 296q0 -35 13.5 -66.5t36.5 -54.5t54.5 -36.5t66.5 -13.5q34 0 63 13t49.5 35t32.5 52t14 64v14q-2 34 -14 64t-32.5 52t-49.5 35t-63 13q-35 0 -66.5 -13.5t-54.5 -37t-36.5 -54.5t-13.5 -66z
" />
    <glyph glyph-name="A" unicode="A" horiz-adv-x="700" 
d="M612 0l-90 209h-344l-90 -209h-76l302 700h74l300 -700h-76zM495 274l-144 341l-146 -341h290z" />
    <glyph glyph-name="B" unicode="B" horiz-adv-x="653" 
d="M70 700h262q47 0 89 -11.5t73.5 -34.5t49.5 -58.5t18 -84.5q0 -45 -13 -79t-45 -63q55 -22 84 -69.5t29 -104.5q0 -53 -20.5 -90t-53.5 -60t-76 -34t-88 -11h-309v700zM137 326v-261h249q30 0 59 8t51.5 24.5t36 41t13.5 57.5q0 34 -13 59t-35 40.5t-49.5 23t-56.5 7.5
h-255zM137 638v-250h245q25 0 46.5 10t37.5 26.5t24.5 39t8.5 47.5q0 32 -13.5 56t-35.5 39.5t-49.5 23.5t-54.5 8h-209z" />
    <glyph glyph-name="C" unicode="C" horiz-adv-x="709" 
d="M669 98q-50 -53 -117.5 -82.5t-148.5 -29.5q-77 0 -143.5 28t-115 76.5t-76.5 115t-28 143.5t28 143.5t76.5 115t115 76.5t143.5 28q78 0 145 -28t116 -79l-51 -51q-40 41 -93.5 64t-116.5 23q-62 0 -115.5 -22.5t-93 -61.5t-62 -92.5t-22.5 -115.5t22.5 -115.5t62 -93
t93 -62t115.5 -22.5q66 0 122 25t96 70z" />
    <glyph glyph-name="D" unicode="D" horiz-adv-x="701" 
d="M70 700h232q72 0 136 -27.5t111 -74.5t74.5 -111t27.5 -136t-27.5 -136t-74.5 -112t-111 -75.5t-136 -27.5h-232v700zM302 70q58 0 108.5 22t88.5 60.5t60 89.5t22 109t-22 108.5t-60 88.5t-88.5 60t-108.5 22h-165v-560h165z" />
    <glyph glyph-name="E" unicode="E" horiz-adv-x="586" 
d="M70 257v257q0 44 10 78.5t32 58.5t58 36.5t87 12.5h279v-65h-279q-63 0 -90 -29.5t-27 -91.5v-128h363v-65h-363v-70v-186h117h279v-65h-466v257z" />
    <glyph glyph-name="F" unicode="F" horiz-adv-x="566" 
d="M70 514q0 44 10 78.5t32 58.5t58 36.5t87 12.5h279v-65h-279q-63 0 -90 -29.5t-27 -91.5v-128h363v-65h-363v-321h-70v514z" />
    <glyph glyph-name="G" unicode="G" horiz-adv-x="806" 
d="M656 498q-38 66 -104 104.5t-149 38.5q-62 0 -115.5 -22.5t-93 -61.5t-62 -92.5t-22.5 -115.5t22.5 -115.5t62 -93t93 -62t115.5 -22.5q56 0 105.5 18.5t87.5 51.5t63 78.5t33 99.5h-299v65h373v-20q0 -77 -28 -143.5t-76.5 -115t-115 -76.5t-143.5 -28t-143.5 28
t-115 76.5t-76.5 115t-28 143.5t28 143.5t76.5 115t115 76.5t143.5 28q57 0 108.5 -15.5t94.5 -43.5t76 -67.5t54 -87.5h-80z" />
    <glyph glyph-name="H" unicode="H" horiz-adv-x="682" 
d="M612 0h-70v321h-402v-321h-70v700h70v-314h402v314h70v-700z" />
    <glyph glyph-name="I" unicode="I" horiz-adv-x="210" 
d="M140 0h-70v700h70v-700z" />
    <glyph glyph-name="J" unicode="J" horiz-adv-x="561" 
d="M491 220q0 -48 -18.5 -90.5t-50 -74t-74 -50t-90.5 -18.5t-90.5 18.5t-74 50t-50 74t-18.5 90.5h70q0 -34 12.5 -63.5t34.5 -51.5t51.5 -35t64.5 -13q34 0 63.5 13t51.5 35t35 51.5t13 63.5v480h70v-480z" />
    <glyph glyph-name="K" unicode="K" horiz-adv-x="636" 
d="M626 0h-88l-286 336l-112 -114v-222h-70v700h70v-376l372 376h96l-310 -309z" />
    <glyph glyph-name="L" unicode="L" horiz-adv-x="543" 
d="M140 187q0 -62 27 -91.5t90 -29.5h275v-65h-275q-51 0 -87 12.5t-58 36.5t-32 58.5t-10 78.5v74v439h70v-439v-74z" />
    <glyph glyph-name="M" unicode="M" horiz-adv-x="795" 
d="M655 700h70v-700h-70v591l-254 -338l-261 337v-590h-70v700h70l261 -338z" />
    <glyph glyph-name="N" unicode="N" horiz-adv-x="716" 
d="M579 700h67v-700h-46l-463 580v-580h-67v700h52l457 -575v575z" />
    <glyph glyph-name="O" unicode="O" horiz-adv-x="806" 
d="M40 349q0 77 28 143.5t76.5 115t115 76.5t143.5 28t143.5 -28t115 -76.5t76.5 -115t28 -143.5t-28 -143.5t-76.5 -115t-115 -76.5t-143.5 -28t-143.5 28t-115 76.5t-76.5 115t-28 143.5zM110 349q0 -62 22.5 -115.5t62 -93t93 -62t115.5 -22.5t115.5 22.5t92.5 62
t61.5 93t22.5 115.5t-22.5 115.5t-61.5 92.5t-92.5 61.5t-115.5 22.5t-115.5 -22.5t-93 -61.5t-62 -92.5t-22.5 -115.5z" />
    <glyph glyph-name="P" unicode="P" horiz-adv-x="590" 
d="M346 339q30 0 57 11.5t46.5 31.5t31 47.5t11.5 59.5q0 30 -11.5 56.5t-31 46t-46.5 31t-57 11.5h-206v-295h206zM346 700q44 0 82.5 -16.5t67 -45t45 -67t16.5 -82.5q0 -45 -16.5 -84.5t-45 -68.5t-67 -45.5t-82.5 -16.5h-206v-274h-70v700h276z" />
    <glyph glyph-name="Q" unicode="Q" horiz-adv-x="812" 
d="M726 -21l-96 83q-47 -36 -104 -56t-123 -20q-77 0 -143.5 28t-115 76.5t-76.5 115t-28 143.5t28 143.5t76.5 115t115 76.5t143.5 28t143.5 -28t115 -76.5t76.5 -115t28 -143.5q0 -71 -23.5 -132t-65.5 -109l95 -83zM110 349q0 -62 22.5 -115.5t62 -93t93 -62t115.5 -22.5
q49 0 92.5 14t79.5 40l-119 105l46 46l122 -107q33 38 52 88t19 107q0 62 -22.5 115.5t-61.5 92.5t-92.5 61.5t-115.5 22.5t-115.5 -22.5t-93 -61.5t-62 -92.5t-22.5 -115.5z" />
    <glyph glyph-name="R" unicode="R" horiz-adv-x="608" 
d="M344 338q31 0 58 11.5t47 31.5t31.5 47t11.5 58t-11.5 58.5t-31.5 47.5t-47 31.5t-58 11.5h-204v-297h204zM507 0l-204 273h-163v-273h-69v700h273q44 0 83 -16.5t68 -45t45.5 -68t16.5 -84.5q0 -38 -13 -72.5t-35.5 -62.5t-53.5 -47.5t-68 -27.5l206 -276h-86z" />
    <glyph glyph-name="S" unicode="S" horiz-adv-x="589" 
d="M437 359q25 -9 51 -22t46.5 -31.5t33.5 -43.5t13 -57q0 -55 -23.5 -95t-61.5 -66.5t-88 -39t-102 -12.5q-75 0 -140 27t-122 78v4l39 58q45 -45 101 -72t122 -27q36 0 72.5 8.5t66 25t47.5 41.5t18 58q0 22 -12.5 40t-32 32t-42 24t-43.5 17q-38 13 -90.5 26.5
t-100.5 35.5t-81.5 57t-33.5 91q0 49 19 87.5t52 64.5t76.5 39.5t93.5 13.5q60 0 113.5 -20.5t104.5 -58.5l-34 -59q-34 34 -86 52.5t-103 18.5q-27 0 -56 -8t-53 -23.5t-39.5 -40t-15.5 -57.5q0 -29 15.5 -50t41 -37t57 -27.5t64 -20t62 -16t51.5 -15.5z" />
    <glyph glyph-name="T" unicode="T" horiz-adv-x="569" 
d="M10 630v70h549v-70h-239v-630h-70v630h-240z" />
    <glyph glyph-name="U" unicode="U" horiz-adv-x="713" 
d="M568 700h70v-401q0 -77 -19.5 -135t-56 -97t-88.5 -58.5t-118 -19.5q-130 0 -205.5 77.5t-75.5 226.5v407h70v-402q0 -114 56 -179t157 -65q97 0 153.5 62t56.5 177v407z" />
    <glyph glyph-name="V" unicode="V" horiz-adv-x="693" 
d="M310 0l-300 700h77l260 -612l261 612h75l-301 -700h-72z" />
    <glyph glyph-name="W" unicode="W" horiz-adv-x="1024" 
d="M740 88l197 612h77l-237 -700h-72l-193 598l-193 -598h-72l-237 700h77l197 -612l191 612h74z" />
    <glyph glyph-name="X" unicode="X" horiz-adv-x="645" 
d="M283 356l-262 344h83l220 -290l223 290h81l-266 -342l275 -358h-84l-231 304l-233 -304h-81z" />
    <glyph glyph-name="Y" unicode="Y" horiz-adv-x="629" 
d="M2 700h77l237 -357l234 357h77l-275 -425v-275h-71v273z" />
    <glyph glyph-name="Z" unicode="Z" horiz-adv-x="548" 
d="M15 0v70l421 565h-418v65h502v-65l-427 -570h440v-65h-518z" />
    <glyph glyph-name="bracketleft" unicode="[" horiz-adv-x="312" 
d="M100 699h172v-64h-105v-699h105v-65h-172v828z" />
    <glyph glyph-name="backslash" unicode="\" horiz-adv-x="350" 
d="M261 -73l-254 825h67l254 -825h-67z" />
    <glyph glyph-name="bracketright" unicode="]" horiz-adv-x="312" 
d="M212 -129h-172v65h105v699h-105v64h172v-828z" />
    <glyph glyph-name="asciicircum" unicode="^" horiz-adv-x="455" 
d="M438 303h-77l-133 308l-134 -308h-77l172 397h77z" />
    <glyph glyph-name="underscore" unicode="_" horiz-adv-x="584" 
d="M0 -160v66h585v-66h-585z" />
    <glyph glyph-name="grave" unicode="`" horiz-adv-x="286" 
d="M256 628l-33 -58l-197 106l32 60z" />
    <glyph glyph-name="a" unicode="a" horiz-adv-x="612" 
d="M495 513h67v-513h-67v87q-31 -43 -79 -71.5t-109 -28.5q-56 0 -104.5 21t-85.5 58t-58 85.5t-21 104.5t21 105t58 86t85.5 58t104.5 21q61 0 110 -30t78 -72v89zM105 256q0 -42 16 -78.5t43.5 -64t64 -43.5t78.5 -16q41 0 74.5 15t58.5 41.5t39 61.5t16 75v17
q-2 40 -16 76t-39 62t-58.5 41.5t-74.5 15.5q-42 0 -78.5 -16t-64 -43.5t-43.5 -64.5t-16 -79z" />
    <glyph glyph-name="b" unicode="b" horiz-adv-x="622" 
d="M128 421q29 51 78 78t110 27q55 0 104 -21t86 -58t58 -86t21 -105t-21 -104.5t-58 -85.5t-86 -58t-104 -21q-56 0 -103 21t-80.5 57.5t-52.5 85.5t-19 105v474h67v-309zM518 256q0 42 -16 79t-43.5 64.5t-64 43.5t-78.5 16t-76.5 -16t-59.5 -43.5t-38.5 -64.5t-13.5 -79
v-1q0 -42 13.5 -78.5t38.5 -63.5t59.5 -43t76.5 -16t78.5 16t64 43.5t43.5 64t16 78.5z" />
    <glyph glyph-name="c" unicode="c" horiz-adv-x="550" 
d="M520 88q-38 -47 -92.5 -74t-118.5 -27q-56 0 -104.5 21t-85.5 58t-58 85.5t-21 104.5t21 105t58 86t85.5 58t104.5 21q61 0 113 -24.5t89 -66.5l-46 -49q-28 34 -68 53.5t-88 19.5q-42 0 -78.5 -16t-64 -43.5t-43.5 -64.5t-16 -79t16 -78.5t43.5 -64t64 -43.5t78.5 -16
q49 0 91 21.5t70 57.5z" />
    <glyph glyph-name="d" unicode="d" horiz-adv-x="624" 
d="M495 730h67v-474q0 -56 -19 -105t-52.5 -85.5t-80.5 -57.5t-103 -21t-104.5 21t-85.5 58t-58 85.5t-21 104.5t21 105t58 86t85.5 58t104.5 21q61 0 110 -27t78 -78v309zM105 256q0 -42 16 -78.5t43.5 -64t64 -43.5t78.5 -16t76.5 16t59.5 43t38.5 63.5t13.5 78.5v1
q0 42 -13.5 79t-38.5 64.5t-59.5 43.5t-76.5 16t-78.5 -16t-64 -43.5t-43.5 -64.5t-16 -79z" />
    <glyph glyph-name="e" unicode="e" horiz-adv-x="589" 
d="M108 228q4 -37 19.5 -68.5t39.5 -55t56.5 -37t70.5 -13.5q52 0 95.5 24t71.5 64h77q-16 -34 -41 -62.5t-56.5 -49t-69 -32t-77.5 -11.5q-56 0 -102.5 21t-80 58t-52.5 85.5t-19 104.5t19 105t52.5 86t80 58t102.5 21t103 -21t80.5 -58t52.5 -86t19 -105v-28h-441z
M294 459q-37 0 -68.5 -12.5t-55.5 -35t-39.5 -53t-21.5 -65.5h370q-6 36 -22 66t-40 52.5t-55 35t-68 12.5z" />
    <glyph glyph-name="f" unicode="f" horiz-adv-x="289" 
d="M289 518v-65h-136v-453h-67v453h-71v65h71v25q-2 45 11 79.5t38 58t60.5 36t79.5 12.5h14v-65h-14q-56 0 -89 -27t-33 -83v-36h136z" />
    <glyph glyph-name="g" unicode="g" horiz-adv-x="622" 
d="M105 256q0 -42 16 -78.5t43.5 -64t64 -43.5t78.5 -16q41 0 74.5 15t58.5 41.5t39 61.5t16 75v17q-2 40 -16 76t-39 62t-58.5 41.5t-74.5 15.5q-42 0 -78.5 -16t-64 -43.5t-43.5 -64.5t-16 -79zM562 29q0 -59 -20.5 -105.5t-56 -79t-83.5 -50t-103 -17.5q-26 0 -56 4.5
t-61.5 13.5t-61.5 22.5t-56 31.5l32 56q89 -65 202 -65q43 0 79 12t62 36t41 59t15 80v60q-31 -43 -79 -71.5t-109 -28.5q-56 0 -104.5 21t-85.5 58t-58 85.5t-21 104.5t21 105t58 86t85.5 58t104.5 21q61 0 110 -30t78 -72v89h67v-484z" />
    <glyph glyph-name="h" unicode="h" 
d="M463 275q0 36 -9.5 69.5t-29 59t-50 40.5t-72.5 15q-65 -1 -111 -38.5t-64 -97.5v-323h-67v730h67v-307q29 42 73 72t105 30q55 0 97 -19t70.5 -52.5t43 -79t14.5 -99.5v-275h-67v275z" />
    <glyph glyph-name="i" unicode="i" horiz-adv-x="216" 
d="M73 513h67v-513h-67v513zM60 668q0 20 14 34t34 14t34 -14t14 -34t-14 -34t-34 -14t-34 14t-14 34z" />
    <glyph glyph-name="j" unicode="j" horiz-adv-x="224" 
d="M68 668q0 20 14 34t34 14t34 -14t14 -34t-14 -34t-34 -14t-34 14t-14 34zM0 -125q24 2 40 8.5t25 20.5t12.5 38t3.5 62v509h67v-509q0 -59 -9 -96.5t-27 -59t-46 -31.5t-66 -13v71z" />
    <glyph glyph-name="k" unicode="k" horiz-adv-x="517" 
d="M499 557l-235 -248l248 -309h-87l-204 263l-94 -96v-167h-67v730h67v-467l280 294h92z" />
    <glyph glyph-name="l" unicode="l" horiz-adv-x="187" 
d="M60 730h67v-730h-67v730z" />
    <glyph glyph-name="m" unicode="m" horiz-adv-x="887" 
d="M483 0h-67v275q0 36 -7 69.5t-23.5 59t-44.5 40.5t-70 15q-32 0 -58.5 -11.5t-45.5 -31.5t-29.5 -47t-10.5 -58v-311h-67v513h67v-83q21 43 59 69t88 26q69 0 114 -30.5t68 -81.5q10 21 29 41.5t42.5 36t49.5 25t51 9.5q55 0 94.5 -19t65 -52.5t37.5 -79t12 -99.5v-275
h-67v275q0 36 -7 69.5t-23.5 59t-44.5 40.5t-70 15q-32 0 -58.5 -11.5t-45 -31.5t-28.5 -47t-10 -58v-311z" />
    <glyph glyph-name="n" unicode="n" 
d="M463 275q0 36 -9.5 69.5t-29 59t-50 40.5t-72.5 15q-65 -1 -111 -38.5t-64 -97.5v-323h-67v513h67v-90q29 42 73 72t105 30q55 0 97 -19t70.5 -52.5t43 -79t14.5 -99.5v-275h-67v275z" />
    <glyph glyph-name="o" unicode="o" horiz-adv-x="619" 
d="M40 256q0 56 21 105t58 86t85.5 58t104.5 21t105 -21t86 -58t58 -86t21 -105t-21 -104.5t-58 -85.5t-86 -58t-105 -21t-104.5 21t-85.5 58t-58 85.5t-21 104.5zM107 256q0 -42 16 -78.5t43.5 -64t64 -43.5t78.5 -16t79 16t64.5 43.5t43.5 64t16 78.5t-16 79t-43.5 64.5
t-64.5 43.5t-79 16t-78.5 -16t-64 -43.5t-43.5 -64.5t-16 -79z" />
    <glyph glyph-name="p" unicode="p" horiz-adv-x="624" 
d="M127 -223h-67v480q0 56 19 105t52.5 85.5t80.5 57.5t103 21q55 0 104 -21t86 -58t58 -86t21 -104q0 -56 -21 -105t-58 -86t-86 -58t-104 -21q-61 0 -110 27t-78 78v-315zM517 257q0 42 -16 78.5t-43.5 64t-64 43.5t-78.5 16t-76.5 -16t-59.5 -43t-38.5 -63.5t-13.5 -78.5
v-1q0 -42 13.5 -79t38.5 -64.5t59.5 -43.5t76.5 -16t78.5 16t64 43.5t43.5 64.5t16 79z" />
    <glyph glyph-name="q" unicode="q" horiz-adv-x="624" 
d="M497 92q-29 -51 -78 -78t-110 -27q-56 0 -104.5 21t-85.5 58t-58 86t-21 105q0 55 21 104t58 86t85.5 58t104.5 21t103 -21t80.5 -57.5t52.5 -85.5t19 -105v-480h-67v315zM107 257q0 -42 16 -79t43.5 -64.5t64 -43.5t78.5 -16t76.5 16t59.5 43.5t38.5 64.5t13.5 79v1
q0 42 -13.5 78.5t-38.5 63.5t-59.5 43t-76.5 16t-78.5 -16t-64 -43.5t-43.5 -64t-16 -78.5z" />
    <glyph glyph-name="r" unicode="r" horiz-adv-x="339" 
d="M127 0h-67v513h67v-105q9 21 30.5 42t49.5 38t60 27.5t62 10.5v-82q-42 0 -78.5 -13.5t-64 -38.5t-43.5 -59.5t-16 -76.5v-256z" />
    <glyph glyph-name="s" unicode="s" horiz-adv-x="488" 
d="M78 106q42 -26 90.5 -38.5t99.5 -12.5q23 0 44.5 6t37.5 16.5t25.5 25.5t9.5 34v2q0 19 -12 34.5t-32 27.5t-45 21t-50 16q-30 9 -62.5 18t-58.5 24t-43 37.5t-17 58.5v2q0 33 14.5 60.5t40 47t59.5 30t72 10.5h2q42 0 92.5 -11.5t97.5 -34.5l-31 -55q-38 19 -79.5 27.5
t-83.5 8.5q-23 0 -43 -5.5t-35 -15.5t-23.5 -24t-8.5 -30v-2q0 -18 12.5 -31t33 -23t46 -17.5t51.5 -15.5q30 -9 61 -20.5t56.5 -28.5t42 -41.5t16.5 -59.5v-2q0 -37 -16 -65.5t-42.5 -48.5t-61.5 -30.5t-74 -10.5q-24 0 -52.5 4t-58 12t-59 20t-54.5 28z" />
    <glyph glyph-name="t" unicode="t" horiz-adv-x="294" 
d="M10 518h71v183h67v-183h135v-65h-135v-279q0 -56 33 -83t89 -27h14v-65h-14q-88 1 -138.5 48t-50.5 138v268h-71v65z" />
    <glyph glyph-name="u" unicode="u" 
d="M117 238q0 -36 9.5 -69.5t29 -59t50 -40.5t72.5 -15q65 1 111 38.5t64 97.5v323h67v-513h-67v90q-29 -42 -73 -72t-105 -30q-55 0 -97 19t-70.5 52.5t-43 79t-14.5 99.5v275h67v-275z" />
    <glyph glyph-name="v" unicode="v" horiz-adv-x="523" 
d="M225 0l-220 513h77l180 -425l181 425h75l-221 -513h-72z" />
    <glyph glyph-name="w" unicode="w" horiz-adv-x="829" 
d="M195 0l-185 513h77l145 -425l145 425h77l145 -425l145 425h75l-185 -513h-72l-148 409l-147 -409h-72z" />
    <glyph glyph-name="x" unicode="x" horiz-adv-x="502" 
d="M211 263l-192 250h83l150 -196l150 196h81l-193 -248l204 -265h-84l-160 211l-161 -211h-81z" />
    <glyph glyph-name="y" unicode="y" 
d="M91 -119q76 -41 165 -41q43 0 79 12t62 36t41 59t15 80v63q-29 -42 -73 -72t-105 -30q-55 0 -97 19t-70.5 52.5t-43 79t-14.5 99.5v275h67v-275q0 -36 9.5 -69.5t29 -59t50 -40.5t72.5 -15q65 1 111 38.5t64 97.5v323h67v-484q0 -59 -20.5 -105.5t-56 -79t-83.5 -50
t-103 -17.5q-42 0 -92 13.5t-98 37.5z" />
    <glyph glyph-name="z" unicode="z" horiz-adv-x="469" 
d="M20 50l339 398h-331v65h421v-58l-333 -390h327v-65h-423v50z" />
    <glyph glyph-name="braceleft" unicode="{" horiz-adv-x="256" 
d="M159 19q0 -16 6.5 -30t17.5 -24t25 -16t30 -6v-71q-30 0 -57.5 11.5t-47.5 31t-32 46.5t-12 58v174q0 31 -21.5 52.5t-51.5 23.5h-6v71q16 0 30 6t25 16t17.5 24t6.5 30v136q0 31 12 58t32 46.5t47.5 31t57.5 11.5v-71q-16 0 -30 -6t-25 -16t-17.5 -24t-6.5 -30v-136
q0 -35 -14.5 -63.5t-37.5 -48.5q23 -20 37.5 -48.5t14.5 -62.5v-174z" />
    <glyph glyph-name="bar" unicode="|" horiz-adv-x="148" 
d="M41 824h67v-1039h-67v1039z" />
    <glyph glyph-name="braceright" unicode="}" horiz-adv-x="257" 
d="M96 191q0 34 14.5 62.5t37.5 48.5q-23 20 -37.5 48.5t-14.5 63.5v136q0 16 -6.5 30t-17.5 24t-25 16t-30 6v71q30 0 57.5 -11.5t47.5 -31t32 -46.5t12 -58v-136q0 -16 6.5 -30t17.5 -24t25 -16t30 -6v-71h-6q-30 -2 -51.5 -23.5t-21.5 -52.5v-174q0 -31 -12 -58
t-32 -46.5t-47.5 -31t-57.5 -11.5v71q16 0 30 6t25 16t17.5 24t6.5 30v174z" />
    <glyph glyph-name="asciitilde" unicode="~" horiz-adv-x="498" 
d="M27 435h72v-49q0 -26 18.5 -44.5t44.5 -18.5q22 0 39 14.5t35 31.5t41.5 31.5t58.5 14.5q28 0 52.5 -10.5t42.5 -28.5t28.5 -42.5t10.5 -52.5v-49h-72v49q0 26 -18.5 44.5t-44.5 18.5q-22 0 -38.5 -14.5t-34.5 -31.5t-41.5 -31.5t-59.5 -14.5q-28 0 -52.5 10.5
t-42.5 28.5t-28.5 42.5t-10.5 52.5v49z" />
    <glyph glyph-name="cent" unicode="&#xa2;" horiz-adv-x="570" 
d="M269 669h67v-840h-67v840zM530 88q-38 -47 -92.5 -74t-118.5 -27q-56 0 -104.5 21t-85.5 58t-58 85.5t-21 104.5t21 105t58 86t85.5 58t104.5 21q61 0 113 -24.5t89 -66.5l-46 -49q-28 34 -68 53.5t-88 19.5q-42 0 -78.5 -16t-64 -43.5t-43.5 -64.5t-16 -79t16 -78.5
t43.5 -64t64 -43.5t78.5 -16q49 0 91 21.5t70 57.5z" />
    <glyph glyph-name="sterling" unicode="&#xa3;" 
d="M29 360h49v133q0 43 17 82.5t46 69t67.5 47t82.5 17.5q45 0 85 -17.5t69.5 -47t46.5 -69t17 -82.5v-19h-68v19q0 31 -11.5 57.5t-32 46.5t-48 31.5t-58.5 11.5t-58 -11.5t-47 -31.5t-31.5 -46.5t-11.5 -57.5v-133h158v-65h-158v-230h363v-65h-428v295h-49v65z" />
    <glyph glyph-name="yen" unicode="&#xa5;" horiz-adv-x="649" 
d="M272 153h-172v65h161h297v-65h-286zM262 270h-162v65h177h281v-65h-296zM12 700h77l237 -357l234 357h77l-275 -425v-275h-71v273z" />
    <glyph glyph-name="dieresis" unicode="&#xa8;" horiz-adv-x="316" 
d="M28 789q0 20 14.5 34.5t34.5 14.5t34.5 -14.5t14.5 -34.5t-14.5 -34.5t-34.5 -14.5t-34.5 14.5t-14.5 34.5zM191 789q0 20 14.5 34.5t34.5 14.5t34.5 -14.5t14.5 -34.5t-14.5 -34.5t-34.5 -14.5t-34.5 14.5t-14.5 34.5z" />
    <glyph glyph-name="copyright" unicode="&#xa9;" horiz-adv-x="741" 
d="M52 349q0 69 25 128.5t69 104t104 69.5t129 25t128.5 -25t104 -69.5t69.5 -104t25 -128.5t-25 -129t-69.5 -104t-104 -69t-128.5 -25t-129 25t-104 69t-69 104t-25 129zM97 349q0 -60 21.5 -111.5t59.5 -89.5t89.5 -59.5t111.5 -21.5t111 21.5t89 59.5t59.5 89.5
t21.5 111.5t-21.5 111t-59.5 89t-89 59.5t-111 21.5t-111.5 -21.5t-89.5 -59.5t-59.5 -89t-21.5 -111zM535 207q-29 -31 -67.5 -47.5t-83.5 -16.5q-44 0 -81.5 15.5t-65 43.5t-43.5 65.5t-16 81.5q0 43 16 81t43.5 65.5t65 43.5t81.5 16t82.5 -16t65.5 -45l-29 -32
q-23 23 -53 36.5t-66 13.5t-66 -12.5t-51.5 -34t-34 -51.5t-12.5 -65t12.5 -65t34 -52t51.5 -34.5t66 -12.5q37 0 69 14.5t54 39.5z" />
    <glyph glyph-name="guillemotleft" unicode="&#xab;" horiz-adv-x="535" 
d="M451 498l49 -50l-199 -199l199 -199l-49 -50l-249 249zM261 498l49 -50l-199 -199l199 -199l-49 -50l-249 249z" />
    <glyph glyph-name="registered" unicode="&#xae;" horiz-adv-x="746" 
d="M52 349q0 69 25 128.5t69 104t104 69.5t129 25t128.5 -25t104 -69.5t69.5 -104t25 -128.5t-25 -129t-69.5 -104t-104 -69t-128.5 -25t-129 25t-104 69t-69 104t-25 129zM97 349q0 -60 21.5 -111.5t59.5 -89.5t89.5 -59.5t111.5 -21.5t111 21.5t89 59.5t59.5 89.5
t21.5 111.5t-21.5 111t-59.5 89t-89 59.5t-111 21.5t-111.5 -21.5t-89.5 -59.5t-59.5 -89t-21.5 -111zM400 349q36 0 59 23t23 57q0 36 -23 59t-59 23h-111v-162h111zM490 154l-115 155h-86v-155h-43v397h154q25 0 47.5 -9t39 -25.5t26 -39t9.5 -48.5q0 -21 -7.5 -41
t-20 -35.5t-30.5 -26.5t-39 -15l118 -157h-53z" />
    <glyph glyph-name="plusminus" unicode="&#xb1;" horiz-adv-x="583" 
d="M516 139v-66h-476v66h476zM258 434h-208v65h208v206h67v-206h208v-65h-208v-206h-67v206z" />
    <glyph glyph-name="acute" unicode="&#xb4;" horiz-adv-x="161" 
d="M93 573h-74l51 127h74z" />
    <glyph glyph-name="mu" unicode="&#xb5;" horiz-adv-x="600" 
d="M60 311h67v-509h-67v509zM127 238q0 -36 9.5 -69.5t29 -59t50 -40.5t72.5 -15q65 1 111 38.5t64 97.5v323h67v-513h-67v90q-29 -42 -73 -72t-105 -30q-55 0 -97 19t-70.5 52.5t-43 79t-14.5 99.5v275h67v-275z" />
    <glyph glyph-name="mu" unicode="&#x3bc;" horiz-adv-x="600" 
d="M60 311h67v-509h-67v509zM127 238q0 -36 9.5 -69.5t29 -59t50 -40.5t72.5 -15q65 1 111 38.5t64 97.5v323h67v-513h-67v90q-29 -42 -73 -72t-105 -30q-55 0 -97 19t-70.5 52.5t-43 79t-14.5 99.5v275h67v-275z" />
    <glyph glyph-name="paragraph" unicode="&#xb6;" horiz-adv-x="833" 
 />
    <glyph glyph-name="periodcentered" unicode="&#xb7;" horiz-adv-x="248" 
d="M75 306q0 20 14.5 34.5t34.5 14.5t34.5 -14.5t14.5 -34.5t-14.5 -34.5t-34.5 -14.5t-34.5 14.5t-14.5 34.5z" />
    <glyph glyph-name="cedilla" unicode="&#xb8;" horiz-adv-x="230" 
d="M42 -192h66q14 0 24 10t10 24t-10 24.5t-24 10.5h-66v123h66v-55q21 0 40 -8t33 -22t22 -32.5t8 -40.5q0 -45 -30 -73.5t-73 -28.5h-66v68z" />
    <glyph glyph-name="guillemotright" unicode="&#xbb;" horiz-adv-x="535" 
d="M333 249l-249 -249l-49 50l199 199l-199 199l49 50zM523 249l-249 -249l-49 50l199 199l-199 199l49 50z" />
    <glyph glyph-name="questiondown" unicode="&#xbf;" horiz-adv-x="523" 
d="M263 -4q-43 0 -80 16t-64.5 43.5t-43 64t-15.5 77.5q0 38 13 72t36 61t54 45t67 24v118h67v-182h-34q-29 0 -54 -11t-43.5 -29.5t-29.5 -44t-11 -53.5t11 -52t29.5 -42t43.5 -28t54 -10q28 0 52 10t42 28t28 42t10 52h68q0 -41 -16 -77.5t-43 -64t-63.5 -43.5t-77.5 -16z
M308 660q0 -20 -14 -34t-34 -14t-34 14t-14 34t14 34t34 14t34 -14t14 -34z" />
    <glyph glyph-name="Agrave" unicode="&#xc0;" horiz-adv-x="700" 
d="M612 0l-90 209h-344l-90 -209h-76l302 700h74l300 -700h-76zM495 274l-144 341l-146 -341h290zM468 823l-33 -58l-197 106l32 60z" />
    <glyph glyph-name="Aacute" unicode="&#xc1;" horiz-adv-x="720" 
d="M622 0l-90 209h-344l-90 -209h-76l302 700h74l300 -700h-76zM505 274l-144 341l-146 -341h290zM230.047 824l32.9941 -58l196.964 106l-31.9941 60z" />
    <glyph glyph-name="Acircumflex" unicode="&#xc2;" horiz-adv-x="720" 
d="M622 0l-90 209h-344l-90 -209h-76l302 700h74l300 -700h-76zM505 274l-144 341l-146 -341h290zM404 875l92 -130h-76l-60 84l-61 -84h-75l91 130h89z" />
    <glyph glyph-name="Atilde" unicode="&#xc3;" horiz-adv-x="700" 
d="M612 0l-90 209h-344l-90 -209h-76l302 700h74l300 -700h-76zM495 274l-144 341l-146 -341h290zM409 848l62 -37q-24 -42 -65.5 -53t-83.5 13q-15 10 -28 5t-22 -21l-62 37q24 42 65.5 53t83.5 -12q15 -9 28 -4.5t22 19.5z" />
    <glyph glyph-name="Adieresis" unicode="&#xc4;" horiz-adv-x="700" 
d="M612 0l-90 209h-344l-90 -209h-76l302 700h74l300 -700h-76zM495 274l-144 341l-146 -341h290zM223 842q0 20 14.5 34.5t34.5 14.5t34.5 -14.5t14.5 -34.5t-14.5 -34.5t-34.5 -14.5t-34.5 14.5t-14.5 34.5zM386 842q0 20 14.5 34.5t34.5 14.5t34.5 -14.5t14.5 -34.5
t-14.5 -34.5t-34.5 -14.5t-34.5 14.5t-14.5 34.5z" />
    <glyph glyph-name="AE" unicode="&#xc6;" horiz-adv-x="866" 
d="M367 0v321h-125l-48 -112l-90 -209h-76l302 700h503v-65h-396v-249h363v-65h-363v-256h396v-65h-466zM367 386v227l-97 -227h97z" />
    <glyph glyph-name="Ccedilla" unicode="&#xc7;" horiz-adv-x="709" 
d="M669 98q-50 -53 -117.5 -82.5t-148.5 -29.5q-77 0 -143.5 28t-115 76.5t-76.5 115t-28 143.5t28 143.5t76.5 115t115 76.5t143.5 28q78 0 145 -28t116 -79l-51 -51q-40 41 -93.5 64t-116.5 23q-62 0 -115.5 -22.5t-93 -61.5t-62 -92.5t-22.5 -115.5t22.5 -115.5t62 -93
t93 -62t115.5 -22.5q66 0 122 25t96 70zM347 -192h66q14 0 24 10t10 24t-10 24.5t-24 10.5h-66v123h66v-55q21 0 40 -8t33 -22t22 -32.5t8 -40.5q0 -45 -30 -73.5t-73 -28.5h-66v68z" />
    <glyph glyph-name="Egrave" unicode="&#xc8;" horiz-adv-x="606" 
d="M80 257v257q0 44 10 78.5t32 58.5t58 36.5t87 12.5h279v-65h-279q-63 0 -90 -29.5t-27 -91.5v-128h363v-65h-363v-70v-186h117h279v-65h-466v257zM435 824l-33 -58l-197 106l32 60z" />
    <glyph glyph-name="Eacute" unicode="&#xc9;" horiz-adv-x="586" 
d="M70 257v257q0 44 10 78.5t32 58.5t58 36.5t87 12.5h279v-65h-279q-63 0 -90 -29.5t-27 -91.5v-128h363v-65h-363v-70v-186h117h279v-65h-466v257zM193.047 824l32.9941 -58l196.964 106l-31.9941 60z" />
    <glyph glyph-name="Ecircumflex" unicode="&#xca;" horiz-adv-x="606" 
d="M80 257v257q0 44 10 78.5t32 58.5t58 36.5t87 12.5h279v-65h-279q-63 0 -90 -29.5t-27 -91.5v-128h363v-65h-363v-70v-186h117h279v-65h-466v257zM369 899l92 -130h-76l-60 84l-61 -84h-75l91 130h89z" />
    <glyph glyph-name="Edieresis" unicode="&#xcb;" horiz-adv-x="606" 
d="M80 257v257q0 44 10 78.5t32 58.5t58 36.5t87 12.5h279v-65h-279q-63 0 -90 -29.5t-27 -91.5v-128h363v-65h-363v-70v-186h117h279v-65h-466v257zM198 843q0 20 14.5 34.5t34.5 14.5t34.5 -14.5t14.5 -34.5t-14.5 -34.5t-34.5 -14.5t-34.5 14.5t-14.5 34.5zM361 843
q0 20 14.5 34.5t34.5 14.5t34.5 -14.5t14.5 -34.5t-14.5 -34.5t-34.5 -14.5t-34.5 14.5t-14.5 34.5z" />
    <glyph glyph-name="Igrave" unicode="&#xcc;" horiz-adv-x="230" 
d="M150 0h-70v700h70v-700zM233 824l-33 -58l-197 106l32 60z" />
    <glyph glyph-name="Iacute" unicode="&#xcd;" horiz-adv-x="230" 
d="M150 0h-70v700h70v-700zM0.046875 824l32.9941 -58l196.964 106l-31.9941 60z" />
    <glyph glyph-name="Icircumflex" unicode="&#xce;" horiz-adv-x="230" 
d="M150 0h-70v700h70v-700zM159 899l92 -130h-76l-60 84l-61 -84h-75l91 130h89z" />
    <glyph glyph-name="Idieresis" unicode="&#xcf;" horiz-adv-x="230" 
d="M150 0h-70v700h70v-700zM-14 843q0 20 14.5 34.5t34.5 14.5t34.5 -14.5t14.5 -34.5t-14.5 -34.5t-34.5 -14.5t-34.5 14.5t-14.5 34.5zM149 843q0 20 14.5 34.5t34.5 14.5t34.5 -14.5t14.5 -34.5t-14.5 -34.5t-34.5 -14.5t-34.5 14.5t-14.5 34.5z" />
    <glyph glyph-name="Eth" unicode="&#xd0;" horiz-adv-x="672" 
d="M61 700h235q72 0 136 -27.5t111 -74.5t74.5 -111t27.5 -136t-27.5 -136t-74.5 -112t-111 -75.5t-136 -27.5h-235v315h-99v70h99v315zM303 385v-70h-172v-245h165q58 0 108.5 22t88.5 60.5t60 89.5t22 109t-22 108.5t-60 88.5t-88.5 60t-108.5 22h-165v-245h172z" />
    <glyph glyph-name="Ntilde" unicode="&#xd1;" horiz-adv-x="696" 
d="M579 700h67v-700h-46l-463 580v-580h-67v700h52l457 -575v575zM426 849l62 -37q-24 -42 -65.5 -53t-83.5 13q-15 10 -28 5t-22 -21l-62 37q24 42 65.5 53t83.5 -12q15 -9 28 -4.5t22 19.5z" />
    <glyph glyph-name="Ograve" unicode="&#xd2;" horiz-adv-x="826" 
d="M50 349q0 77 28 143.5t76.5 115t115 76.5t143.5 28t143.5 -28t115 -76.5t76.5 -115t28 -143.5t-28 -143.5t-76.5 -115t-115 -76.5t-143.5 -28t-143.5 28t-115 76.5t-76.5 115t-28 143.5zM120 349q0 -62 22.5 -115.5t62 -93t93 -62t115.5 -22.5t115.5 22.5t92.5 62
t61.5 93t22.5 115.5t-22.5 115.5t-61.5 92.5t-92.5 61.5t-115.5 22.5t-115.5 -22.5t-93 -61.5t-62 -92.5t-22.5 -115.5zM526 824l-33 -58l-197 106l32 60z" />
    <glyph glyph-name="Oacute" unicode="&#xd3;" horiz-adv-x="826" 
d="M50 349q0 77 28 143.5t76.5 115t115 76.5t143.5 28t143.5 -28t115 -76.5t76.5 -115t28 -143.5t-28 -143.5t-76.5 -115t-115 -76.5t-143.5 -28t-143.5 28t-115 76.5t-76.5 115t-28 143.5zM120 349q0 -62 22.5 -115.5t62 -93t93 -62t115.5 -22.5t115.5 22.5t92.5 62
t61.5 93t22.5 115.5t-22.5 115.5t-61.5 92.5t-92.5 61.5t-115.5 22.5t-115.5 -22.5t-93 -61.5t-62 -92.5t-22.5 -115.5zM291.047 824l32.9941 -58l196.964 106l-31.9941 60z" />
    <glyph glyph-name="Ocircumflex" unicode="&#xd4;" horiz-adv-x="826" 
d="M50 349q0 77 28 143.5t76.5 115t115 76.5t143.5 28t143.5 -28t115 -76.5t76.5 -115t28 -143.5t-28 -143.5t-76.5 -115t-115 -76.5t-143.5 -28t-143.5 28t-115 76.5t-76.5 115t-28 143.5zM120 349q0 -62 22.5 -115.5t62 -93t93 -62t115.5 -22.5t115.5 22.5t92.5 62
t61.5 93t22.5 115.5t-22.5 115.5t-61.5 92.5t-92.5 61.5t-115.5 22.5t-115.5 -22.5t-93 -61.5t-62 -92.5t-22.5 -115.5zM451 899l92 -130h-76l-60 84l-61 -84h-75l91 130h89z" />
    <glyph glyph-name="Otilde" unicode="&#xd5;" horiz-adv-x="826" 
d="M50 349q0 77 28 143.5t76.5 115t115 76.5t143.5 28t143.5 -28t115 -76.5t76.5 -115t28 -143.5t-28 -143.5t-76.5 -115t-115 -76.5t-143.5 -28t-143.5 28t-115 76.5t-76.5 115t-28 143.5zM120 349q0 -62 22.5 -115.5t62 -93t93 -62t115.5 -22.5t115.5 22.5t92.5 62
t61.5 93t22.5 115.5t-22.5 115.5t-61.5 92.5t-92.5 61.5t-115.5 22.5t-115.5 -22.5t-93 -61.5t-62 -92.5t-22.5 -115.5zM472 872l62 -37q-24 -42 -65.5 -53t-83.5 13q-15 10 -28 5t-22 -21l-62 37q24 42 65.5 53t83.5 -12q15 -9 28 -4.5t22 19.5z" />
    <glyph glyph-name="Odieresis" unicode="&#xd6;" horiz-adv-x="806" 
d="M40 349q0 77 28 143.5t76.5 115t115 76.5t143.5 28t143.5 -28t115 -76.5t76.5 -115t28 -143.5t-28 -143.5t-76.5 -115t-115 -76.5t-143.5 -28t-143.5 28t-115 76.5t-76.5 115t-28 143.5zM110 349q0 -62 22.5 -115.5t62 -93t93 -62t115.5 -22.5t115.5 22.5t92.5 62
t61.5 93t22.5 115.5t-22.5 115.5t-61.5 92.5t-92.5 61.5t-115.5 22.5t-115.5 -22.5t-93 -61.5t-62 -92.5t-22.5 -115.5zM271 842q0 20 14.5 34.5t34.5 14.5t34.5 -14.5t14.5 -34.5t-14.5 -34.5t-34.5 -14.5t-34.5 14.5t-14.5 34.5zM434 842q0 20 14.5 34.5t34.5 14.5
t34.5 -14.5t14.5 -34.5t-14.5 -34.5t-34.5 -14.5t-34.5 14.5t-14.5 34.5z" />
    <glyph glyph-name="multiply" unicode="&#xd7;" horiz-adv-x="547" 
d="M291 302l-147 -147l-46 46l147 147l-146 145l48 48l145 -146l147 147l46 -46l-147 -147l146 -145l-48 -48z" />
    <glyph glyph-name="Oslash" unicode="&#xd8;" horiz-adv-x="826" 
d="M230 -73l254 825h67l-254 -825h-67zM50 349q0 77 28 143.5t76.5 115t115 76.5t143.5 28t143.5 -28t115 -76.5t76.5 -115t28 -143.5t-28 -143.5t-76.5 -115t-115 -76.5t-143.5 -28t-143.5 28t-115 76.5t-76.5 115t-28 143.5zM120 349q0 -62 22.5 -115.5t62 -93t93 -62
t115.5 -22.5t115.5 22.5t92.5 62t61.5 93t22.5 115.5t-22.5 115.5t-61.5 92.5t-92.5 61.5t-115.5 22.5t-115.5 -22.5t-93 -61.5t-62 -92.5t-22.5 -115.5z" />
    <glyph glyph-name="Ugrave" unicode="&#xd9;" horiz-adv-x="733" 
d="M578 700h70v-401q0 -77 -19.5 -135t-56 -97t-88.5 -58.5t-118 -19.5q-130 0 -205.5 77.5t-75.5 226.5v407h70v-402q0 -114 56 -179t157 -65q97 0 153.5 62t56.5 177v407zM496 824l-33 -58l-197 106l32 60z" />
    <glyph glyph-name="Uacute" unicode="&#xda;" horiz-adv-x="733" 
d="M578 700h70v-401q0 -77 -19.5 -135t-56 -97t-88.5 -58.5t-118 -19.5q-130 0 -205.5 77.5t-75.5 226.5v407h70v-402q0 -114 56 -179t157 -65q97 0 153.5 62t56.5 177v407zM247.047 824l32.9941 -58l196.964 106l-31.9941 60z" />
    <glyph glyph-name="Ucircumflex" unicode="&#xdb;" horiz-adv-x="733" 
d="M578 700h70v-401q0 -77 -19.5 -135t-56 -97t-88.5 -58.5t-118 -19.5q-130 0 -205.5 77.5t-75.5 226.5v407h70v-402q0 -114 56 -179t157 -65q97 0 153.5 62t56.5 177v407zM409 899l92 -130h-76l-60 84l-61 -84h-75l91 130h89z" />
    <glyph glyph-name="Udieresis" unicode="&#xdc;" horiz-adv-x="713" 
d="M568 700h70v-401q0 -77 -19.5 -135t-56 -97t-88.5 -58.5t-118 -19.5q-130 0 -205.5 77.5t-75.5 226.5v407h70v-402q0 -114 56 -179t157 -65q97 0 153.5 62t56.5 177v407zM228 815q0 20 14.5 34.5t34.5 14.5t34.5 -14.5t14.5 -34.5t-14.5 -34.5t-34.5 -14.5t-34.5 14.5
t-14.5 34.5zM391 815q0 20 14.5 34.5t34.5 14.5t34.5 -14.5t14.5 -34.5t-14.5 -34.5t-34.5 -14.5t-34.5 14.5t-14.5 34.5z" />
    <glyph glyph-name="Yacute" unicode="&#xdd;" horiz-adv-x="649" 
d="M12 700h77l237 -357l234 357h77l-275 -425v-275h-71v273zM336 769h-74l51 127h74z" />
    <glyph glyph-name="Thorn" unicode="&#xde;" horiz-adv-x="407" 
d="M40 700h70v-200h38q108 0 170 -50q60 -51 60 -139q0 -45 -15.5 -79t-44.5 -60q-62 -49 -170 -49h-38v-123h-70v700zM263 223q40 32 40 88q0 55 -40 89q-43 32 -113 32h-40v-241h40q70 0 113 32z" />
    <glyph glyph-name="germandbls" unicode="&#xdf;" horiz-adv-x="674" 
d="M368 65h28q30 0 59 8t51.5 24.5t36 41t13.5 57.5q0 34 -13 59t-35 40.5t-49.5 23t-56.5 7.5h-255v-326h-67v700h262q47 0 89 -11.5t73.5 -34.5t49.5 -58.5t18 -84.5q0 -45 -13 -79t-45 -63q55 -22 84 -69.5t29 -104.5q0 -53 -20.5 -90t-53.5 -60t-76 -34t-88 -11h-21v65z
M147 638v-250h245q25 0 46.5 10t37.5 26.5t24.5 39t8.5 47.5q0 32 -13.5 56t-35.5 39.5t-49.5 23.5t-54.5 8h-209z" />
    <glyph glyph-name="agrave" unicode="&#xe0;" horiz-adv-x="610" 
d="M494 513h67v-513h-67v87q-31 -43 -79 -71.5t-109 -28.5q-56 0 -104.5 21t-85.5 58t-58 85.5t-21 104.5t21 105t58 86t85.5 58t104.5 21q61 0 110 -30t78 -72v89zM104 256q0 -42 16 -78.5t43.5 -64t64 -43.5t78.5 -16q41 0 74.5 15t58.5 41.5t39 61.5t16 75v17
q-2 40 -16 76t-39 62t-58.5 41.5t-74.5 15.5q-42 0 -78.5 -16t-64 -43.5t-43.5 -64.5t-16 -79zM408 628l-33 -58l-197 106l32 60z" />
    <glyph glyph-name="aacute" unicode="&#xe1;" horiz-adv-x="610" 
d="M494 513h67v-513h-67v87q-31 -43 -79 -71.5t-109 -28.5q-56 0 -104.5 21t-85.5 58t-58 85.5t-21 104.5t21 105t58 86t85.5 58t104.5 21q61 0 110 -30t78 -72v89zM104 256q0 -42 16 -78.5t43.5 -64t64 -43.5t78.5 -16q41 0 74.5 15t58.5 41.5t39 61.5t16 75v17
q-2 40 -16 76t-39 62t-58.5 41.5t-74.5 15.5q-42 0 -78.5 -16t-64 -43.5t-43.5 -64.5t-16 -79zM179.047 628l32.9941 -58l196.964 106l-31.9941 60z" />
    <glyph glyph-name="acircumflex" unicode="&#xe2;" horiz-adv-x="610" 
d="M494 513h67v-513h-67v87q-31 -43 -79 -71.5t-109 -28.5q-56 0 -104.5 21t-85.5 58t-58 85.5t-21 104.5t21 105t58 86t85.5 58t104.5 21q61 0 110 -30t78 -72v89zM104 256q0 -42 16 -78.5t43.5 -64t64 -43.5t78.5 -16q41 0 74.5 15t58.5 41.5t39 61.5t16 75v17
q-2 40 -16 76t-39 62t-58.5 41.5t-74.5 15.5q-42 0 -78.5 -16t-64 -43.5t-43.5 -64.5t-16 -79zM350 700l92 -130h-76l-60 84l-61 -84h-75l91 130h89z" />
    <glyph glyph-name="atilde" unicode="&#xe3;" horiz-adv-x="632" 
d="M505 513h67v-513h-67v87q-31 -43 -79 -71.5t-109 -28.5q-56 0 -104.5 21t-85.5 58t-58 85.5t-21 104.5t21 105t58 86t85.5 58t104.5 21q61 0 110 -30t78 -72v89zM115 256q0 -42 16 -78.5t43.5 -64t64 -43.5t78.5 -16q41 0 74.5 15t58.5 41.5t39 61.5t16 75v17
q-2 40 -16 76t-39 62t-58.5 41.5t-74.5 15.5q-42 0 -78.5 -16t-64 -43.5t-43.5 -64.5t-16 -79zM363 650l62 -37q-24 -42 -65.5 -53t-83.5 13q-15 10 -28 5t-22 -21l-62 37q24 42 65.5 53t83.5 -12q15 -9 28 -4.5t22 19.5z" />
    <glyph glyph-name="adieresis" unicode="&#xe4;" horiz-adv-x="610" 
d="M494 513h67v-513h-67v87q-31 -43 -79 -71.5t-109 -28.5q-56 0 -104.5 21t-85.5 58t-58 85.5t-21 104.5t21 105t58 86t85.5 58t104.5 21q61 0 110 -30t78 -72v89zM104 256q0 -42 16 -78.5t43.5 -64t64 -43.5t78.5 -16q41 0 74.5 15t58.5 41.5t39 61.5t16 75v17
q-2 40 -16 76t-39 62t-58.5 41.5t-74.5 15.5q-42 0 -78.5 -16t-64 -43.5t-43.5 -64.5t-16 -79zM175 641q0 20 14.5 34.5t34.5 14.5t34.5 -14.5t14.5 -34.5t-14.5 -34.5t-34.5 -14.5t-34.5 14.5t-14.5 34.5zM338 641q0 20 14.5 34.5t34.5 14.5t34.5 -14.5t14.5 -34.5
t-14.5 -34.5t-34.5 -14.5t-34.5 14.5t-14.5 34.5z" />
    <glyph glyph-name="ae" unicode="&#xe6;" horiz-adv-x="1099" 
d="M508 513h67v-513h-67v87q-31 -43 -79 -71.5t-109 -28.5q-56 0 -104.5 21t-85.5 58t-58 85.5t-21 104.5t21 105t58 86t85.5 58t104.5 21q61 0 110 -30t78 -72v89zM118 256q0 -42 16 -78.5t43.5 -64t64 -43.5t78.5 -16q41 0 74.5 15t58.5 41.5t39 61.5t16 75v17
q-2 40 -16 76t-39 62t-58.5 41.5t-74.5 15.5q-42 0 -78.5 -16t-64 -43.5t-43.5 -64.5t-16 -79zM609 228q4 -37 19.5 -68.5t39.5 -55t56.5 -37t70.5 -13.5q52 0 95.5 24t71.5 64h77q-16 -34 -41 -62.5t-56.5 -49t-69 -32t-77.5 -11.5q-56 0 -102.5 21t-80 58t-52.5 85.5
t-19 104.5t19 105t52.5 86t80 58t102.5 21t103 -21t80.5 -58t52.5 -86t19 -105v-28h-441zM795 459q-37 0 -68.5 -12.5t-55.5 -35t-39.5 -53t-21.5 -65.5h370q-6 36 -22 66t-40 52.5t-55 35t-68 12.5z" />
    <glyph glyph-name="ccedilla" unicode="&#xe7;" horiz-adv-x="550" 
d="M520 88q-38 -47 -92.5 -74t-118.5 -27q-56 0 -104.5 21t-85.5 58t-58 85.5t-21 104.5t21 105t58 86t85.5 58t104.5 21q61 0 113 -24.5t89 -66.5l-46 -49q-28 34 -68 53.5t-88 19.5q-42 0 -78.5 -16t-64 -43.5t-43.5 -64.5t-16 -79t16 -78.5t43.5 -64t64 -43.5t78.5 -16
q49 0 91 21.5t70 57.5zM248 -192h66q14 0 24 10t10 24t-10 24.5t-24 10.5h-66v123h66v-55q21 0 40 -8t33 -22t22 -32.5t8 -40.5q0 -45 -30 -73.5t-73 -28.5h-66v68z" />
    <glyph glyph-name="egrave" unicode="&#xe8;" horiz-adv-x="589" 
d="M108 228q4 -37 19.5 -68.5t39.5 -55t56.5 -37t70.5 -13.5q52 0 95.5 24t71.5 64h77q-16 -34 -41 -62.5t-56.5 -49t-69 -32t-77.5 -11.5q-56 0 -102.5 21t-80 58t-52.5 85.5t-19 104.5t19 105t52.5 86t80 58t102.5 21t103 -21t80.5 -58t52.5 -86t19 -105v-28h-441z
M294 459q-37 0 -68.5 -12.5t-55.5 -35t-39.5 -53t-21.5 -65.5h370q-6 36 -22 66t-40 52.5t-55 35t-68 12.5zM413 628l-33 -58l-197 106l32 60z" />
    <glyph glyph-name="eacute" unicode="&#xe9;" horiz-adv-x="589" 
d="M108 228q4 -37 19.5 -68.5t39.5 -55t56.5 -37t70.5 -13.5q52 0 95.5 24t71.5 64h77q-16 -34 -41 -62.5t-56.5 -49t-69 -32t-77.5 -11.5q-56 0 -102.5 21t-80 58t-52.5 85.5t-19 104.5t19 105t52.5 86t80 58t102.5 21t103 -21t80.5 -58t52.5 -86t19 -105v-28h-441z
M294 459q-37 0 -68.5 -12.5t-55.5 -35t-39.5 -53t-21.5 -65.5h370q-6 36 -22 66t-40 52.5t-55 35t-68 12.5zM154.047 642l32.9941 -58l196.964 106l-31.9941 60z" />
    <glyph glyph-name="ecircumflex" unicode="&#xea;" horiz-adv-x="589" 
d="M108 228q4 -37 19.5 -68.5t39.5 -55t56.5 -37t70.5 -13.5q52 0 95.5 24t71.5 64h77q-16 -34 -41 -62.5t-56.5 -49t-69 -32t-77.5 -11.5q-56 0 -102.5 21t-80 58t-52.5 85.5t-19 104.5t19 105t52.5 86t80 58t102.5 21t103 -21t80.5 -58t52.5 -86t19 -105v-28h-441z
M294 459q-37 0 -68.5 -12.5t-55.5 -35t-39.5 -53t-21.5 -65.5h370q-6 36 -22 66t-40 52.5t-55 35t-68 12.5zM333 701l92 -130h-76l-60 84l-61 -84h-75l91 130h89z" />
    <glyph glyph-name="edieresis" unicode="&#xeb;" horiz-adv-x="589" 
d="M108 228q4 -37 19.5 -68.5t39.5 -55t56.5 -37t70.5 -13.5q52 0 95.5 24t71.5 64h77q-16 -34 -41 -62.5t-56.5 -49t-69 -32t-77.5 -11.5q-56 0 -102.5 21t-80 58t-52.5 85.5t-19 104.5t19 105t52.5 86t80 58t102.5 21t103 -21t80.5 -58t52.5 -86t19 -105v-28h-441z
M294 459q-37 0 -68.5 -12.5t-55.5 -35t-39.5 -53t-21.5 -65.5h370q-6 36 -22 66t-40 52.5t-55 35t-68 12.5zM170 640q0 20 14.5 34.5t34.5 14.5t34.5 -14.5t14.5 -34.5t-14.5 -34.5t-34.5 -14.5t-34.5 14.5t-14.5 34.5zM333 640q0 20 14.5 34.5t34.5 14.5t34.5 -14.5
t14.5 -34.5t-14.5 -34.5t-34.5 -14.5t-34.5 14.5t-14.5 34.5z" />
    <glyph glyph-name="igrave" unicode="&#xec;" horiz-adv-x="236" 
d="M83 0h67v513h-67v-513zM25 697h74l51 -127h-74z" />
    <glyph glyph-name="iacute" unicode="&#xed;" horiz-adv-x="236" 
d="M83 0h67v513h-67v-513zM150 570h-74l51 127h74z" />
    <glyph glyph-name="icircumflex" unicode="&#xee;" horiz-adv-x="236" 
d="M83 0h67v513h-67v-513zM160 700l92 -130h-76l-60 84l-61 -84h-75l91 130h89z" />
    <glyph glyph-name="idieresis" unicode="&#xef;" horiz-adv-x="236" 
d="M83 513h67v-513h-67v513zM-10 623q0 20 14.5 34.5t34.5 14.5t34.5 -14.5t14.5 -34.5t-14.5 -34.5t-34.5 -14.5t-34.5 14.5t-14.5 34.5zM153 623q0 20 14.5 34.5t34.5 14.5t34.5 -14.5t14.5 -34.5t-14.5 -34.5t-34.5 -14.5t-34.5 14.5t-14.5 34.5z" />
    <glyph glyph-name="ntilde" unicode="&#xf1;" 
d="M463 275q0 36 -9.5 69.5t-29 59t-50 40.5t-72.5 15q-65 -1 -111 -38.5t-64 -97.5v-323h-67v513h67v-90q29 42 73 72t105 30q55 0 97 -19t70.5 -52.5t43 -79t14.5 -99.5v-275h-67v275zM361 674l62 -37q-24 -42 -65.5 -53t-83.5 13q-15 10 -28 5t-22 -21l-62 37
q24 42 65.5 53t83.5 -12q15 -9 28 -4.5t22 19.5z" />
    <glyph glyph-name="ograve" unicode="&#xf2;" horiz-adv-x="619" 
d="M40 256q0 56 21 105t58 86t85.5 58t104.5 21t105 -21t86 -58t58 -86t21 -105t-21 -104.5t-58 -85.5t-86 -58t-105 -21t-104.5 21t-85.5 58t-58 85.5t-21 104.5zM107 256q0 -42 16 -78.5t43.5 -64t64 -43.5t78.5 -16t79 16t64.5 43.5t43.5 64t16 78.5t-16 79t-43.5 64.5
t-64.5 43.5t-79 16t-78.5 -16t-64 -43.5t-43.5 -64.5t-16 -79zM442 628l-33 -58l-197 106l32 60z" />
    <glyph glyph-name="oacute" unicode="&#xf3;" horiz-adv-x="619" 
d="M40 256q0 56 21 105t58 86t85.5 58t104.5 21t105 -21t86 -58t58 -86t21 -105t-21 -104.5t-58 -85.5t-86 -58t-105 -21t-104.5 21t-85.5 58t-58 85.5t-21 104.5zM107 256q0 -42 16 -78.5t43.5 -64t64 -43.5t78.5 -16t79 16t64.5 43.5t43.5 64t16 78.5t-16 79t-43.5 64.5
t-64.5 43.5t-79 16t-78.5 -16t-64 -43.5t-43.5 -64.5t-16 -79zM327 573h-74l51 127h74z" />
    <glyph glyph-name="ocircumflex" unicode="&#xf4;" horiz-adv-x="619" 
d="M40 256q0 56 21 105t58 86t85.5 58t104.5 21t105 -21t86 -58t58 -86t21 -105t-21 -104.5t-58 -85.5t-86 -58t-105 -21t-104.5 21t-85.5 58t-58 85.5t-21 104.5zM107 256q0 -42 16 -78.5t43.5 -64t64 -43.5t78.5 -16t79 16t64.5 43.5t43.5 64t16 78.5t-16 79t-43.5 64.5
t-64.5 43.5t-79 16t-78.5 -16t-64 -43.5t-43.5 -64.5t-16 -79zM340 700l92 -130h-76l-60 84l-61 -84h-75l91 130h89z" />
    <glyph glyph-name="otilde" unicode="&#xf5;" horiz-adv-x="619" 
d="M40 256q0 56 21 105t58 86t85.5 58t104.5 21t105 -21t86 -58t58 -86t21 -105t-21 -104.5t-58 -85.5t-86 -58t-105 -21t-104.5 21t-85.5 58t-58 85.5t-21 104.5zM107 256q0 -42 16 -78.5t43.5 -64t64 -43.5t78.5 -16t79 16t64.5 43.5t43.5 64t16 78.5t-16 79t-43.5 64.5
t-64.5 43.5t-79 16t-78.5 -16t-64 -43.5t-43.5 -64.5t-16 -79zM376 674l62 -37q-24 -42 -65.5 -53t-83.5 13q-15 10 -28 5t-22 -21l-62 37q24 42 65.5 53t83.5 -12q15 -9 28 -4.5t22 19.5z" />
    <glyph glyph-name="odieresis" unicode="&#xf6;" horiz-adv-x="619" 
d="M40 256q0 56 21 105t58 86t85.5 58t104.5 21t105 -21t86 -58t58 -86t21 -105t-21 -104.5t-58 -85.5t-86 -58t-105 -21t-104.5 21t-85.5 58t-58 85.5t-21 104.5zM107 256q0 -42 16 -78.5t43.5 -64t64 -43.5t78.5 -16t79 16t64.5 43.5t43.5 64t16 78.5t-16 79t-43.5 64.5
t-64.5 43.5t-79 16t-78.5 -16t-64 -43.5t-43.5 -64.5t-16 -79zM184 642q0 20 14.5 34.5t34.5 14.5t34.5 -14.5t14.5 -34.5t-14.5 -34.5t-34.5 -14.5t-34.5 14.5t-14.5 34.5zM347 642q0 20 14.5 34.5t34.5 14.5t34.5 -14.5t14.5 -34.5t-14.5 -34.5t-34.5 -14.5t-34.5 14.5
t-14.5 34.5z" />
    <glyph glyph-name="divide" unicode="&#xf7;" horiz-adv-x="450" 
d="M181 76q0 20 14.5 34.5t34.5 14.5t34.5 -14.5t14.5 -34.5t-14.5 -34.5t-34.5 -14.5t-34.5 14.5t-14.5 34.5zM181 390q0 20 14.5 34.5t34.5 14.5t34.5 -14.5t14.5 -34.5t-14.5 -34.5t-34.5 -14.5t-34.5 14.5t-14.5 34.5zM538 275v-66h-476v66h476z" />
    <glyph glyph-name="oslash" unicode="&#xf8;" horiz-adv-x="639" 
d="M142 -151l254 825h67l-254 -825h-67zM50 256q0 56 21 105t58 86t85.5 58t104.5 21t105 -21t86 -58t58 -86t21 -105t-21 -104.5t-58 -85.5t-86 -58t-105 -21t-104.5 21t-85.5 58t-58 85.5t-21 104.5zM117 256q0 -42 16 -78.5t43.5 -64t64 -43.5t78.5 -16t79 16t64.5 43.5
t43.5 64t16 78.5t-16 79t-43.5 64.5t-64.5 43.5t-79 16t-78.5 -16t-64 -43.5t-43.5 -64.5t-16 -79z" />
    <glyph glyph-name="ugrave" unicode="&#xf9;" 
d="M117 238q0 -36 9.5 -69.5t29 -59t50 -40.5t72.5 -15q65 1 111 38.5t64 97.5v323h67v-513h-67v90q-29 -42 -73 -72t-105 -30q-55 0 -97 19t-70.5 52.5t-43 79t-14.5 99.5v275h67v-275zM403 628l-33 -58l-197 106l32 60z" />
    <glyph glyph-name="uacute" unicode="&#xfa;" 
d="M117 238q0 -36 9.5 -69.5t29 -59t50 -40.5t72.5 -15q65 1 111 38.5t64 97.5v323h67v-513h-67v90q-29 -42 -73 -72t-105 -30q-55 0 -97 19t-70.5 52.5t-43 79t-14.5 99.5v275h67v-275zM316 573h-74l51 127h74z" />
    <glyph glyph-name="ucircumflex" unicode="&#xfb;" 
d="M117 238q0 -36 9.5 -69.5t29 -59t50 -40.5t72.5 -15q65 1 111 38.5t64 97.5v323h67v-513h-67v90q-29 -42 -73 -72t-105 -30q-55 0 -97 19t-70.5 52.5t-43 79t-14.5 99.5v275h67v-275zM327 700l92 -130h-76l-60 84l-61 -84h-75l91 130h89z" />
    <glyph glyph-name="udieresis" unicode="&#xfc;" 
d="M117 238q0 -36 9.5 -69.5t29 -59t50 -40.5t72.5 -15q65 1 111 38.5t64 97.5v323h67v-513h-67v90q-29 -42 -73 -72t-105 -30q-55 0 -97 19t-70.5 52.5t-43 79t-14.5 99.5v275h67v-275zM153 641q0 20 14.5 34.5t34.5 14.5t34.5 -14.5t14.5 -34.5t-14.5 -34.5t-34.5 -14.5
t-34.5 14.5t-14.5 34.5zM316 641q0 20 14.5 34.5t34.5 14.5t34.5 -14.5t14.5 -34.5t-14.5 -34.5t-34.5 -14.5t-34.5 14.5t-14.5 34.5z" />
    <glyph glyph-name="yacute" unicode="&#xfd;" horiz-adv-x="600" 
d="M101 -119q76 -41 165 -41q43 0 79 12t62 36t41 59t15 80v63q-29 -42 -73 -72t-105 -30q-55 0 -97 19t-70.5 52.5t-43 79t-14.5 99.5v275h67v-275q0 -36 9.5 -69.5t29 -59t50 -40.5t72.5 -15q65 1 111 38.5t64 97.5v323h67v-484q0 -59 -20.5 -105.5t-56 -79t-83.5 -50
t-103 -17.5q-42 0 -92 13.5t-98 37.5zM326 573h-74l51 127h74z" />
    <glyph glyph-name="thorn" unicode="&#xfe;" horiz-adv-x="626" 
d="M40 700h70v-266l10 11q38 38 88 59.5t107 21.5t107 -21.5t87.5 -59t59 -87.5t21.5 -107t-21.5 -107t-59 -87.5t-87.5 -59t-107 -21.5t-107 21.5t-88 58.5l-10 11v-282h-70v915zM110 251q0 -42 16 -79.5t44 -65.5t65.5 -44t79.5 -16t79.5 16t65.5 44t44 65.5t16 79.5
t-16 79.5t-44 65.5t-65.5 44t-79.5 16q-64 0 -114.5 -34.5t-74.5 -91.5q-7 -16 -11 -32.5t-5 -33.5v-13z" />
    <glyph glyph-name="ydieresis" unicode="&#xff;" horiz-adv-x="600" 
d="M101 -119q76 -41 165 -41q43 0 79 12t62 36t41 59t15 80v63q-29 -42 -73 -72t-105 -30q-55 0 -97 19t-70.5 52.5t-43 79t-14.5 99.5v275h67v-275q0 -36 9.5 -69.5t29 -59t50 -40.5t72.5 -15q65 1 111 38.5t64 97.5v323h67v-484q0 -59 -20.5 -105.5t-56 -79t-83.5 -50
t-103 -17.5q-42 0 -92 13.5t-98 37.5zM158 641q0 20 14.5 34.5t34.5 14.5t34.5 -14.5t14.5 -34.5t-14.5 -34.5t-34.5 -14.5t-34.5 14.5t-14.5 34.5zM321 641q0 20 14.5 34.5t34.5 14.5t34.5 -14.5t14.5 -34.5t-14.5 -34.5t-34.5 -14.5t-34.5 14.5t-14.5 34.5z" />
    <glyph glyph-name="aogonek" unicode="&#x105;" horiz-adv-x="601" 
d="M494 513h67v-513h-67v87q-31 -43 -79 -71.5t-109 -28.5q-56 0 -104.5 21t-85.5 58t-58 85.5t-21 104.5t21 105t58 86t85.5 58t104.5 21q61 0 110 -30t78 -72v89zM104 256q0 -42 16 -78.5t43.5 -64t64 -43.5t78.5 -16q41 0 74.5 15t58.5 41.5t39 61.5t16 75v17
q-2 40 -16 76t-39 62t-58.5 41.5t-74.5 15.5q-42 0 -78.5 -16t-64 -43.5t-43.5 -64.5t-16 -79zM342 -264h-70q-21 0 -40.5 8t-33.5 22t-22.5 33t-8.5 41t8.5 41t22.5 33t33.5 22.5t40.5 8.5v55h70v-125h-70q-14 0 -24 -10.5t-10 -24.5t10 -24t24 -10h70v-70z" />
    <glyph glyph-name="Cacute" unicode="&#x106;" horiz-adv-x="700" 
d="M661 98q-50 -53 -117.5 -82.5t-148.5 -29.5q-77 0 -143.5 28t-115 76.5t-76.5 115t-28 143.5t28 143.5t76.5 115t115 76.5t143.5 28q78 0 145 -28t116 -79l-51 -51q-40 41 -93.5 64t-116.5 23q-62 0 -115.5 -22.5t-93 -61.5t-62 -92.5t-22.5 -115.5t22.5 -115.5t62 -93
t93 -62t115.5 -22.5q66 0 122 25t96 70zM436 769h-74l51 127h74z" />
    <glyph glyph-name="cacute" unicode="&#x107;" horiz-adv-x="575" 
d="M532 88q-38 -47 -92.5 -74t-118.5 -27q-56 0 -104.5 21t-85.5 58t-58 85.5t-21 104.5t21 105t58 86t85.5 58t104.5 21q61 0 113 -24.5t89 -66.5l-46 -49q-28 34 -68 53.5t-88 19.5q-42 0 -78.5 -16t-64 -43.5t-43.5 -64.5t-16 -79t16 -78.5t43.5 -64t64 -43.5t78.5 -16
q49 0 91 21.5t70 57.5zM331 573h-74l51 127h74z" />
    <glyph glyph-name="Ccircumflex" unicode="&#x108;" horiz-adv-x="700" 
d="M661 98q-50 -53 -117.5 -82.5t-148.5 -29.5q-77 0 -143.5 28t-115 76.5t-76.5 115t-28 143.5t28 143.5t76.5 115t115 76.5t143.5 28q78 0 145 -28t116 -79l-51 -51q-40 41 -93.5 64t-116.5 23q-62 0 -115.5 -22.5t-93 -61.5t-62 -92.5t-22.5 -115.5t22.5 -115.5t62 -93
t93 -62t115.5 -22.5q66 0 122 25t96 70zM437 899l92 -130h-76l-60 84l-61 -84h-75l91 130h89z" />
    <glyph glyph-name="ccircumflex" unicode="&#x109;" horiz-adv-x="575" 
d="M532 88q-38 -47 -92.5 -74t-118.5 -27q-56 0 -104.5 21t-85.5 58t-58 85.5t-21 104.5t21 105t58 86t85.5 58t104.5 21q61 0 113 -24.5t89 -66.5l-46 -49q-28 34 -68 53.5t-88 19.5q-42 0 -78.5 -16t-64 -43.5t-43.5 -64.5t-16 -79t16 -78.5t43.5 -64t64 -43.5t78.5 -16
q49 0 91 21.5t70 57.5zM345 700l92 -130h-76l-60 84l-61 -84h-75l91 130h89z" />
    <glyph glyph-name="Cdotaccent" unicode="&#x10a;" horiz-adv-x="714" 
d="M661 98q-50 -53 -117.5 -82.5t-148.5 -29.5q-77 0 -143.5 28t-115 76.5t-76.5 115t-28 143.5t28 143.5t76.5 115t115 76.5t143.5 28q78 0 145 -28t116 -79l-51 -51q-40 41 -93.5 64t-116.5 23q-62 0 -115.5 -22.5t-93 -61.5t-62 -92.5t-22.5 -115.5t22.5 -115.5t62 -93
t93 -62t115.5 -22.5q66 0 122 25t96 70zM357 813q0 18 12 30t30 12t30 -12t12 -30t-12 -30t-30 -12t-30 12t-12 30z" />
    <glyph glyph-name="cdotaccent" unicode="&#x10b;" horiz-adv-x="575" 
d="M532 88q-38 -47 -92.5 -74t-118.5 -27q-56 0 -104.5 21t-85.5 58t-58 85.5t-21 104.5t21 105t58 86t85.5 58t104.5 21q61 0 113 -24.5t89 -66.5l-46 -49q-28 34 -68 53.5t-88 19.5q-42 0 -78.5 -16t-64 -43.5t-43.5 -64.5t-16 -79t16 -78.5t43.5 -64t64 -43.5t78.5 -16
q49 0 91 21.5t70 57.5zM259 615q0 18 12 30t30 12t30 -12t12 -30t-12 -30t-30 -12t-30 12t-12 30z" />
    <glyph glyph-name="Ccaron" unicode="&#x10c;" horiz-adv-x="729" 
d="M679 98q-50 -53 -117.5 -82.5t-148.5 -29.5q-77 0 -143.5 28t-115 76.5t-76.5 115t-28 143.5t28 143.5t76.5 115t115 76.5t143.5 28q78 0 145 -28t116 -79l-51 -51q-40 41 -93.5 64t-116.5 23q-62 0 -115.5 -22.5t-93 -61.5t-62 -92.5t-22.5 -115.5t22.5 -115.5t62 -93
t93 -62t115.5 -22.5q66 0 122 25t96 70zM357 769l-91 130h75l61 -84l60 84h76l-92 -130h-89z" />
    <glyph glyph-name="ccaron" unicode="&#x10d;" horiz-adv-x="570" 
d="M530 88q-38 -47 -92.5 -74t-118.5 -27q-56 0 -104.5 21t-85.5 58t-58 85.5t-21 104.5t21 105t58 86t85.5 58t104.5 21q61 0 113 -24.5t89 -66.5l-46 -49q-28 34 -68 53.5t-88 19.5q-42 0 -78.5 -16t-64 -43.5t-43.5 -64.5t-16 -79t16 -78.5t43.5 -64t64 -43.5t78.5 -16
q49 0 91 21.5t70 57.5zM271 570l-91 130h75l61 -84l60 84h76l-92 -130h-89z" />
    <glyph glyph-name="Dcaron" unicode="&#x10e;" horiz-adv-x="721" 
d="M80 700h232q72 0 136 -27.5t111 -74.5t74.5 -111t27.5 -136t-27.5 -136t-74.5 -112t-111 -75.5t-136 -27.5h-232v700zM312 70q58 0 108.5 22t88.5 60.5t60 89.5t22 109t-22 108.5t-60 88.5t-88.5 60t-108.5 22h-165v-560h165zM294 769l-91 130h75l61 -84l60 84h76
l-92 -130h-89z" />
    <glyph glyph-name="Edotaccent" unicode="&#x116;" horiz-adv-x="539" 
d="M41 257v257q0 44 10 78.5t32 58.5t58 36.5t87 12.5h279v-65h-279q-63 0 -90 -29.5t-27 -91.5v-128h363v-65h-363v-70v-186h117h279v-65h-466v257zM246 789q0 18 12 30t30 12t30 -12t12 -30t-12 -30t-30 -12t-30 12t-12 30z" />
    <glyph glyph-name="edotaccent" unicode="&#x117;" horiz-adv-x="609" 
d="M118 228q4 -37 19.5 -68.5t39.5 -55t56.5 -37t70.5 -13.5q52 0 95.5 24t71.5 64h77q-16 -34 -41 -62.5t-56.5 -49t-69 -32t-77.5 -11.5q-56 0 -102.5 21t-80 58t-52.5 85.5t-19 104.5t19 105t52.5 86t80 58t102.5 21t103 -21t80.5 -58t52.5 -86t19 -105v-28h-441z
M304 459q-37 0 -68.5 -12.5t-55.5 -35t-39.5 -53t-21.5 -65.5h370q-6 36 -22 66t-40 52.5t-55 35t-68 12.5zM260 615q0 18 12 30t30 12t30 -12t12 -30t-12 -30t-30 -12t-30 12t-12 30z" />
    <glyph glyph-name="Eogonek" unicode="&#x118;" horiz-adv-x="533" 
d="M41 257v257q0 44 10 78.5t32 58.5t58 36.5t87 12.5h279v-65h-279q-63 0 -90 -29.5t-27 -91.5v-128h363v-65h-363v-70v-186h117h279v-65h-466v257zM321 -264h-70q-21 0 -40.5 8t-33.5 22t-22.5 33t-8.5 41t8.5 41t22.5 33t33.5 22.5t40.5 8.5v55h70v-125h-70
q-14 0 -24 -10.5t-10 -24.5t10 -24t24 -10h70v-70z" />
    <glyph glyph-name="eogonek" unicode="&#x119;" horiz-adv-x="604" 
d="M114 228q4 -37 19.5 -68.5t39.5 -55t56.5 -37t70.5 -13.5q52 0 95.5 24t71.5 64h77q-16 -34 -41 -62.5t-56.5 -49t-69 -32t-77.5 -11.5q-56 0 -102.5 21t-80 58t-52.5 85.5t-19 104.5t19 105t52.5 86t80 58t102.5 21t103 -21t80.5 -58t52.5 -86t19 -105v-28h-441z
M300 459q-37 0 -68.5 -12.5t-55.5 -35t-39.5 -53t-21.5 -65.5h370q-6 36 -22 66t-40 52.5t-55 35t-68 12.5zM339 -264h-70q-21 0 -40.5 8t-33.5 22t-22.5 33t-8.5 41t8.5 41t22.5 33t33.5 22.5t40.5 8.5v55h70v-125h-70q-14 0 -24 -10.5t-10 -24.5t10 -24t24 -10h70v-70z
" />
    <glyph glyph-name="Ecaron" unicode="&#x11a;" horiz-adv-x="606" 
d="M80 257v257q0 44 10 78.5t32 58.5t58 36.5t87 12.5h279v-65h-279q-63 0 -90 -29.5t-27 -91.5v-128h363v-65h-363v-70v-186h117h279v-65h-466v257zM289 769l-91 130h75l61 -84l60 84h76l-92 -130h-89z" />
    <glyph glyph-name="ecaron" unicode="&#x11b;" horiz-adv-x="609" 
d="M118 228q4 -37 19.5 -68.5t39.5 -55t56.5 -37t70.5 -13.5q52 0 95.5 24t71.5 64h77q-16 -34 -41 -62.5t-56.5 -49t-69 -32t-77.5 -11.5q-56 0 -102.5 21t-80 58t-52.5 85.5t-19 104.5t19 105t52.5 86t80 58t102.5 21t103 -21t80.5 -58t52.5 -86t19 -105v-28h-441z
M304 459q-37 0 -68.5 -12.5t-55.5 -35t-39.5 -53t-21.5 -65.5h370q-6 36 -22 66t-40 52.5t-55 35t-68 12.5zM259 570l-91 130h75l61 -84l60 84h76l-92 -130h-89z" />
    <glyph glyph-name="Gcircumflex" unicode="&#x11c;" horiz-adv-x="826" 
d="M666 498q-38 66 -104 104.5t-149 38.5q-62 0 -115.5 -22.5t-93 -61.5t-62 -92.5t-22.5 -115.5t22.5 -115.5t62 -93t93 -62t115.5 -22.5q56 0 105.5 18.5t87.5 51.5t63 78.5t33 99.5h-299v65h373v-20q0 -77 -28 -143.5t-76.5 -115t-115 -76.5t-143.5 -28t-143.5 28
t-115 76.5t-76.5 115t-28 143.5t28 143.5t76.5 115t115 76.5t143.5 28q57 0 108.5 -15.5t94.5 -43.5t76 -67.5t54 -87.5h-80zM450 899l92 -130h-76l-60 84l-61 -84h-75l91 130h89z" />
    <glyph glyph-name="gcircumflex" unicode="&#x11d;" horiz-adv-x="642" 
d="M115 256q0 -42 16 -78.5t43.5 -64t64 -43.5t78.5 -16q41 0 74.5 15t58.5 41.5t39 61.5t16 75v17q-2 40 -16 76t-39 62t-58.5 41.5t-74.5 15.5q-42 0 -78.5 -16t-64 -43.5t-43.5 -64.5t-16 -79zM572 29q0 -59 -20.5 -105.5t-56 -79t-83.5 -50t-103 -17.5q-26 0 -56 4.5
t-61.5 13.5t-61.5 22.5t-56 31.5l32 56q89 -65 202 -65q43 0 79 12t62 36t41 59t15 80v60q-31 -43 -79 -71.5t-109 -28.5q-56 0 -104.5 21t-85.5 58t-58 85.5t-21 104.5t21 105t58 86t85.5 58t104.5 21q61 0 110 -30t78 -72v89h67v-484zM344 700l92 -130h-76l-60 84l-61 -84
h-75l91 130h89z" />
    <glyph glyph-name="Gdotaccent" unicode="&#x120;" horiz-adv-x="826" 
d="M666 498q-38 66 -104 104.5t-149 38.5q-62 0 -115.5 -22.5t-93 -61.5t-62 -92.5t-22.5 -115.5t22.5 -115.5t62 -93t93 -62t115.5 -22.5q56 0 105.5 18.5t87.5 51.5t63 78.5t33 99.5h-299v65h373v-20q0 -77 -28 -143.5t-76.5 -115t-115 -76.5t-143.5 -28t-143.5 28
t-115 76.5t-76.5 115t-28 143.5t28 143.5t76.5 115t115 76.5t143.5 28q57 0 108.5 -15.5t94.5 -43.5t76 -67.5t54 -87.5h-80zM350 838q0 18 12 30t30 12t30 -12t12 -30t-12 -30t-30 -12t-30 12t-12 30z" />
    <glyph glyph-name="Itilde" unicode="&#x128;" horiz-adv-x="230" 
d="M150 0h-70v700h70v-700zM186 849l62 -37q-24 -42 -65.5 -53t-83.5 13q-15 10 -28 5t-22 -21l-62 37q24 42 65.5 53t83.5 -12q15 -9 28 -4.5t22 19.5z" />
    <glyph glyph-name="dotlessi" unicode="&#x131;" horiz-adv-x="148" 
d="M40 500h70v-500h-70v500z" />
    <glyph glyph-name="nacute" unicode="&#x144;" horiz-adv-x="600" 
d="M473 275q0 36 -9.5 69.5t-29 59t-50 40.5t-72.5 15q-65 -1 -111 -38.5t-64 -97.5v-323h-67v513h67v-90q29 42 73 72t105 30q55 0 97 -19t70.5 -52.5t43 -79t14.5 -99.5v-275h-67v275zM311 573h-74l51 127h74z" />
    <glyph glyph-name="Ncaron" unicode="&#x147;" horiz-adv-x="736" 
d="M589 700h67v-700h-46l-463 580v-580h-67v700h52l457 -575v575zM332 769l-91 130h75l61 -84l60 84h76l-92 -130h-89z" />
    <glyph glyph-name="ncaron" unicode="&#x148;" horiz-adv-x="600" 
d="M473 275q0 36 -9.5 69.5t-29 59t-50 40.5t-72.5 15q-65 -1 -111 -38.5t-64 -97.5v-323h-67v513h67v-90q29 42 73 72t105 30q55 0 97 -19t70.5 -52.5t43 -79t14.5 -99.5v-275h-67v275zM260 570l-91 130h75l61 -84l60 84h76l-92 -130h-89z" />
    <glyph glyph-name="OE" unicode="&#x152;" horiz-adv-x="959" 
d="M913 700v-65h-396v-249h363v-65h-363v-256h396v-65h-466q-77 0 -143 25.5t-114.5 72t-76 110.5t-27.5 141t28 141.5t76.5 111t115 72.5t143.5 26h464zM447 629q-62 0 -115.5 -20.5t-92.5 -57.5t-61 -88.5t-22 -113.5t22 -114.5t61 -90t92.5 -58.5t115.5 -21v321v243z" />
    <glyph glyph-name="oe" unicode="&#x153;" horiz-adv-x="1085" 
d="M49 256q0 56 21 105t58 86t85.5 58t104.5 21t105 -21t86 -58t58 -86t21 -105t-21 -104.5t-58 -85.5t-86 -58t-105 -21t-104.5 21t-85.5 58t-58 85.5t-21 104.5zM116 256q0 -42 16 -78.5t43.5 -64t64 -43.5t78.5 -16t79 16t64.5 43.5t43.5 64t16 78.5t-16 79t-43.5 64.5
t-64.5 43.5t-79 16t-78.5 -16t-64 -43.5t-43.5 -64.5t-16 -79zM595 228q4 -37 19.5 -68.5t39.5 -55t56.5 -37t70.5 -13.5q52 0 95.5 24t71.5 64h77q-16 -34 -41 -62.5t-56.5 -49t-69 -32t-77.5 -11.5q-56 0 -102.5 21t-80 58t-52.5 85.5t-19 104.5t19 105t52.5 86t80 58
t102.5 21t103 -21t80.5 -58t52.5 -86t19 -105v-28h-441zM781 459q-37 0 -68.5 -12.5t-55.5 -35t-39.5 -53t-21.5 -65.5h370q-6 36 -22 66t-40 52.5t-55 35t-68 12.5z" />
    <glyph glyph-name="Racute" unicode="&#x154;" horiz-adv-x="628" 
d="M354 338q31 0 58 11.5t47 31.5t31.5 47t11.5 58t-11.5 58.5t-31.5 47.5t-47 31.5t-58 11.5h-204v-297h204zM517 0l-204 273h-163v-273h-69v700h273q44 0 83 -16.5t68 -45t45.5 -68t16.5 -84.5q0 -38 -13 -72.5t-35.5 -62.5t-53.5 -47.5t-68 -27.5l206 -276h-86zM323 769
h-74l51 127h74z" />
    <glyph glyph-name="racute" unicode="&#x155;" horiz-adv-x="359" 
d="M137 0h-67v513h67v-105q9 21 30.5 42t49.5 38t60 27.5t62 10.5v-82q-42 0 -78.5 -13.5t-64 -38.5t-43.5 -59.5t-16 -76.5v-256zM221 573h-74l51 127h74z" />
    <glyph glyph-name="Rcaron" unicode="&#x158;" horiz-adv-x="628" 
d="M354 338q31 0 58 11.5t47 31.5t31.5 47t11.5 58t-11.5 58.5t-31.5 47.5t-47 31.5t-58 11.5h-204v-297h204zM517 0l-204 273h-163v-273h-69v700h273q44 0 83 -16.5t68 -45t45.5 -68t16.5 -84.5q0 -38 -13 -72.5t-35.5 -62.5t-53.5 -47.5t-68 -27.5l206 -276h-86zM262 769
l-91 130h75l61 -84l60 84h76l-92 -130h-89z" />
    <glyph glyph-name="rcaron" unicode="&#x159;" horiz-adv-x="359" 
d="M137 0h-67v513h67v-105q9 21 30.5 42t49.5 38t60 27.5t62 10.5v-82q-42 0 -78.5 -13.5t-64 -38.5t-43.5 -59.5t-16 -76.5v-256zM143 570l-91 130h75l61 -84l60 84h76l-92 -130h-89z" />
    <glyph glyph-name="Sacute" unicode="&#x15a;" horiz-adv-x="609" 
d="M447 359q25 -9 51 -22t46.5 -31.5t33.5 -43.5t13 -57q0 -55 -23.5 -95t-61.5 -66.5t-88 -39t-102 -12.5q-75 0 -140 27t-122 78v4l39 58q45 -45 101 -72t122 -27q36 0 72.5 8.5t66 25t47.5 41.5t18 58q0 22 -12.5 40t-32 32t-42 24t-43.5 17q-38 13 -90.5 26.5
t-100.5 35.5t-81.5 57t-33.5 91q0 49 19 87.5t52 64.5t76.5 39.5t93.5 13.5q60 0 113.5 -20.5t104.5 -58.5l-34 -59q-34 34 -86 52.5t-103 18.5q-27 0 -56 -8t-53 -23.5t-39.5 -40t-15.5 -57.5q0 -29 15.5 -50t41 -37t57 -27.5t64 -20t62 -16t51.5 -15.5zM327 769h-74
l51 127h74z" />
    <glyph glyph-name="sacute" unicode="&#x15b;" horiz-adv-x="508" 
d="M88 106q42 -26 90.5 -38.5t99.5 -12.5q23 0 44.5 6t37.5 16.5t25.5 25.5t9.5 34v2q0 19 -12 34.5t-32 27.5t-45 21t-50 16q-30 9 -62.5 18t-58.5 24t-43 37.5t-17 58.5v2q0 33 14.5 60.5t40 47t59.5 30t72 10.5h2q42 0 92.5 -11.5t97.5 -34.5l-31 -55q-38 19 -79.5 27.5
t-83.5 8.5q-23 0 -43 -5.5t-35 -15.5t-23.5 -24t-8.5 -30v-2q0 -18 12.5 -31t33 -23t46 -17.5t51.5 -15.5q30 -9 61 -20.5t56.5 -28.5t42 -41.5t16.5 -59.5v-2q0 -37 -16 -65.5t-42.5 -48.5t-61.5 -30.5t-74 -10.5q-24 0 -52.5 4t-58 12t-59 20t-54.5 28zM284 573h-74
l51 127h74z" />
    <glyph glyph-name="Scircumflex" unicode="&#x15c;" horiz-adv-x="609" 
d="M447 359q25 -9 51 -22t46.5 -31.5t33.5 -43.5t13 -57q0 -55 -23.5 -95t-61.5 -66.5t-88 -39t-102 -12.5q-75 0 -140 27t-122 78v4l39 58q45 -45 101 -72t122 -27q36 0 72.5 8.5t66 25t47.5 41.5t18 58q0 22 -12.5 40t-32 32t-42 24t-43.5 17q-38 13 -90.5 26.5
t-100.5 35.5t-81.5 57t-33.5 91q0 49 19 87.5t52 64.5t76.5 39.5t93.5 13.5q60 0 113.5 -20.5t104.5 -58.5l-34 -59q-34 34 -86 52.5t-103 18.5q-27 0 -56 -8t-53 -23.5t-39.5 -40t-15.5 -57.5q0 -29 15.5 -50t41 -37t57 -27.5t64 -20t62 -16t51.5 -15.5zM365 899l92 -130
h-76l-60 84l-61 -84h-75l91 130h89z" />
    <glyph glyph-name="scircumflex" unicode="&#x15d;" horiz-adv-x="508" 
d="M88 106q42 -26 90.5 -38.5t99.5 -12.5q23 0 44.5 6t37.5 16.5t25.5 25.5t9.5 34v2q0 19 -12 34.5t-32 27.5t-45 21t-50 16q-30 9 -62.5 18t-58.5 24t-43 37.5t-17 58.5v2q0 33 14.5 60.5t40 47t59.5 30t72 10.5h2q42 0 92.5 -11.5t97.5 -34.5l-31 -55q-38 19 -79.5 27.5
t-83.5 8.5q-23 0 -43 -5.5t-35 -15.5t-23.5 -24t-8.5 -30v-2q0 -18 12.5 -31t33 -23t46 -17.5t51.5 -15.5q30 -9 61 -20.5t56.5 -28.5t42 -41.5t16.5 -59.5v-2q0 -37 -16 -65.5t-42.5 -48.5t-61.5 -30.5t-74 -10.5q-24 0 -52.5 4t-58 12t-59 20t-54.5 28zM286 700l92 -130
h-76l-60 84l-61 -84h-75l91 130h89z" />
    <glyph glyph-name="Scaron" unicode="&#x160;" horiz-adv-x="609" 
d="M447 359q25 -9 51 -22t46.5 -31.5t33.5 -43.5t13 -57q0 -55 -23.5 -95t-61.5 -66.5t-88 -39t-102 -12.5q-75 0 -140 27t-122 78v4l39 58q45 -45 101 -72t122 -27q36 0 72.5 8.5t66 25t47.5 41.5t18 58q0 22 -12.5 40t-32 32t-42 24t-43.5 17q-38 13 -90.5 26.5
t-100.5 35.5t-81.5 57t-33.5 91q0 49 19 87.5t52 64.5t76.5 39.5t93.5 13.5q60 0 113.5 -20.5t104.5 -58.5l-34 -59q-34 34 -86 52.5t-103 18.5q-27 0 -56 -8t-53 -23.5t-39.5 -40t-15.5 -57.5q0 -29 15.5 -50t41 -37t57 -27.5t64 -20t62 -16t51.5 -15.5zM286 769l-91 130
h75l61 -84l60 84h76l-92 -130h-89z" />
    <glyph glyph-name="scaron" unicode="&#x161;" horiz-adv-x="508" 
d="M88 106q42 -26 90.5 -38.5t99.5 -12.5q23 0 44.5 6t37.5 16.5t25.5 25.5t9.5 34v2q0 19 -12 34.5t-32 27.5t-45 21t-50 16q-30 9 -62.5 18t-58.5 24t-43 37.5t-17 58.5v2q0 33 14.5 60.5t40 47t59.5 30t72 10.5h2q42 0 92.5 -11.5t97.5 -34.5l-31 -55q-38 19 -79.5 27.5
t-83.5 8.5q-23 0 -43 -5.5t-35 -15.5t-23.5 -24t-8.5 -30v-2q0 -18 12.5 -31t33 -23t46 -17.5t51.5 -15.5q30 -9 61 -20.5t56.5 -28.5t42 -41.5t16.5 -59.5v-2q0 -37 -16 -65.5t-42.5 -48.5t-61.5 -30.5t-74 -10.5q-24 0 -52.5 4t-58 12t-59 20t-54.5 28zM221 570l-91 130
h75l61 -84l60 84h76l-92 -130h-89z" />
    <glyph glyph-name="Utilde" unicode="&#x168;" horiz-adv-x="733" 
d="M578 700h70v-401q0 -77 -19.5 -135t-56 -97t-88.5 -58.5t-118 -19.5q-130 0 -205.5 77.5t-75.5 226.5v407h70v-402q0 -114 56 -179t157 -65q97 0 153.5 62t56.5 177v407zM426 872l62 -37q-24 -42 -65.5 -53t-83.5 13q-15 10 -28 5t-22 -21l-62 37q24 42 65.5 53t83.5 -12
q15 -9 28 -4.5t22 19.5z" />
    <glyph glyph-name="utilde" unicode="&#x169;" horiz-adv-x="600" 
d="M127 238q0 -36 9.5 -69.5t29 -59t50 -40.5t72.5 -15q65 1 111 38.5t64 97.5v323h67v-513h-67v90q-29 -42 -73 -72t-105 -30q-55 0 -97 19t-70.5 52.5t-43 79t-14.5 99.5v275h67v-275zM368 650l62 -37q-24 -42 -65.5 -53t-83.5 13q-15 10 -28 5t-22 -21l-62 37
q24 42 65.5 53t83.5 -12q15 -9 28 -4.5t22 19.5z" />
    <glyph glyph-name="Wcircumflex" unicode="&#x174;" horiz-adv-x="1044" 
d="M750 88l197 612h77l-237 -700h-72l-193 598l-193 -598h-72l-237 700h77l197 -612l191 612h74zM571 899l92 -130h-76l-60 84l-61 -84h-75l91 130h89z" />
    <glyph glyph-name="wcircumflex" unicode="&#x175;" horiz-adv-x="849" 
d="M205 0l-185 513h77l145 -425l145 425h77l145 -425l145 425h75l-185 -513h-72l-148 409l-147 -409h-72zM468 700l92 -130h-76l-60 84l-61 -84h-75l91 130h89z" />
    <glyph glyph-name="Ycircumflex" unicode="&#x176;" horiz-adv-x="649" 
d="M12 700h77l237 -357l234 357h77l-275 -425v-275h-71v273zM369 899l92 -130h-76l-60 84l-61 -84h-75l91 130h89z" />
    <glyph glyph-name="Ydieresis" unicode="&#x178;" horiz-adv-x="649" 
d="M12 700h77l237 -357l234 357h77l-275 -425v-275h-71v273zM193 843q0 20 14.5 34.5t34.5 14.5t34.5 -14.5t14.5 -34.5t-14.5 -34.5t-34.5 -14.5t-34.5 14.5t-14.5 34.5zM356 843q0 20 14.5 34.5t34.5 14.5t34.5 -14.5t14.5 -34.5t-14.5 -34.5t-34.5 -14.5t-34.5 14.5
t-14.5 34.5z" />
    <glyph glyph-name="Zacute" unicode="&#x179;" horiz-adv-x="568" 
d="M25 0v70l421 565h-418v65h502v-65l-427 -570h440v-65h-518zM294 769h-74l51 127h74z" />
    <glyph glyph-name="zacute" unicode="&#x17a;" horiz-adv-x="489" 
d="M30 50l339 398h-331v65h421v-58l-333 -390h327v-65h-423v50zM274 573h-74l51 127h74z" />
    <glyph glyph-name="Zdotaccent" unicode="&#x17b;" horiz-adv-x="568" 
d="M25 0v70l421 565h-418v65h502v-65l-427 -570h440v-65h-518zM231 813q0 18 12 30t30 12t30 -12t12 -30t-12 -30t-30 -12t-30 12t-12 30z" />
    <glyph glyph-name="Zcaron" unicode="&#x17d;" horiz-adv-x="568" 
d="M25 0v70l421 565h-418v65h502v-65l-427 -570h440v-65h-518zM248 768l-91 130h75l61 -84l60 84h76l-92 -130h-89z" />
    <glyph glyph-name="zcaron" unicode="&#x17e;" horiz-adv-x="489" 
d="M30 50l339 398h-331v65h421v-58l-333 -390h327v-65h-423v50zM199 570l-91 130h75l61 -84l60 84h76l-92 -130h-89z" />
    <glyph glyph-name="florin" unicode="&#x192;" horiz-adv-x="369" 
d="M117 0v453h-71v65h71v25q-2 45 11 79.5t38 58t60.5 36t79.5 12.5h14v-65h-14q-56 0 -89 -27t-33 -83v-36h136v-65h-136v-453v-4q0 -38 -12 -72.5t-34 -62t-52 -47t-66 -28.5l-1 68q44 16 71 54.5t27 87.5v4z" />
    <glyph glyph-name="circumflex" unicode="&#x2c6;" horiz-adv-x="315" 
d="M202 700l92 -130h-76l-60 84l-61 -84h-75l91 130h89z" />
    <glyph glyph-name="caron" unicode="&#x2c7;" horiz-adv-x="312" 
d="M111 570l-91 130h75l61 -84l60 84h76l-92 -130h-89z" />
    <glyph glyph-name="dotaccent" unicode="&#x2d9;" horiz-adv-x="141" 
d="M29 838q0 18 12 30t30 12t30 -12t12 -30t-12 -30t-30 -12t-30 12t-12 30z" />
    <glyph glyph-name="ogonek" unicode="&#x2db;" horiz-adv-x="230" 
d="M191 -264h-70q-21 0 -40.5 8t-33.5 22t-22.5 33t-8.5 41t8.5 41t22.5 33t33.5 22.5t40.5 8.5v55h70v-125h-70q-14 0 -24 -10.5t-10 -24.5t10 -24t24 -10h70v-70z" />
    <glyph glyph-name="tilde" unicode="&#x2dc;" horiz-adv-x="300" 
d="M218 890l62 -37q-24 -42 -65.5 -53t-83.5 13q-15 10 -28 5t-22 -21l-62 37q24 42 65.5 53t83.5 -12q15 -9 28 -4.5t22 19.5z" />
    <glyph glyph-name="Wgrave" unicode="&#x1e80;" horiz-adv-x="1044" 
d="M750 88l197 612h77l-237 -700h-72l-193 598l-193 -598h-72l-237 700h77l197 -612l191 612h74zM635 824l-33 -58l-197 106l32 60z" />
    <glyph glyph-name="wgrave" unicode="&#x1e81;" horiz-adv-x="849" 
d="M205 0l-185 513h77l145 -425l145 425h77l145 -425l145 425h75l-185 -513h-72l-148 409l-147 -409h-72zM557 628l-33 -58l-197 106l32 60z" />
    <glyph glyph-name="Wacute" unicode="&#x1e82;" horiz-adv-x="1044" 
d="M750 88l197 612h77l-237 -700h-72l-193 598l-193 -598h-72l-237 700h77l197 -612l191 612h74zM557 769h-74l51 127h74z" />
    <glyph glyph-name="wacute" unicode="&#x1e83;" horiz-adv-x="849" 
d="M205 0l-185 513h77l145 -425l145 425h77l145 -425l145 425h75l-185 -513h-72l-148 409l-147 -409h-72zM465 573h-74l51 127h74z" />
    <glyph glyph-name="Wdieresis" unicode="&#x1e84;" horiz-adv-x="1125" 
d="M787 88l197 612h77l-237 -700h-72l-193 598l-193 -598h-72l-237 700h77l197 -612l191 612h74zM435 841q0 20 14.5 34.5t34.5 14.5t34.5 -14.5t14.5 -34.5t-14.5 -34.5t-34.5 -14.5t-34.5 14.5t-14.5 34.5zM598 841q0 20 14.5 34.5t34.5 14.5t34.5 -14.5t14.5 -34.5
t-14.5 -34.5t-34.5 -14.5t-34.5 14.5t-14.5 34.5z" />
    <glyph glyph-name="wdieresis" unicode="&#x1e85;" horiz-adv-x="902" 
d="M225 0l-185 513h77l145 -425l145 425h77l145 -425l145 425h75l-185 -513h-72l-148 409l-147 -409h-72zM319 641q0 20 14.5 34.5t34.5 14.5t34.5 -14.5t14.5 -34.5t-14.5 -34.5t-34.5 -14.5t-34.5 14.5t-14.5 34.5zM482 641q0 20 14.5 34.5t34.5 14.5t34.5 -14.5
t14.5 -34.5t-14.5 -34.5t-34.5 -14.5t-34.5 14.5t-14.5 34.5z" />
    <glyph glyph-name="Ygrave" unicode="&#x1ef2;" horiz-adv-x="688" 
d="M41 700h77l237 -357l234 357h77l-275 -425v-275h-71v273zM451 824l-33 -58l-197 106l32 60z" />
    <glyph glyph-name="endash" unicode="&#x2013;" horiz-adv-x="494" 
d="M40 230v70h414v-70h-414z" />
    <glyph glyph-name="emdash" unicode="&#x2014;" horiz-adv-x="574" 
d="M40 230v70h494v-70h-494z" />
    <glyph glyph-name="quoteleft" unicode="&#x2018;" horiz-adv-x="215" 
d="M101 606q17 -3 32 -17t15 -32q0 -20 -14.5 -34.5t-34.5 -14.5t-34.5 14.5t-14.5 34.5q0 58 21 92t83 51l11 -32q-29 -11 -45 -25.5t-19 -36.5z" />
    <glyph glyph-name="quoteright" unicode="&#x2019;" horiz-adv-x="155" 
d="M81 602q-17 3 -32 17t-15 32q0 20 14.5 34.5t34.5 14.5t34.5 -14.5t14.5 -34.5q0 -29 -4.5 -52t-16.5 -40.5t-32 -30t-51 -20.5l-11 32q29 11 45 25.5t19 36.5z" />
    <glyph glyph-name="quotesinglbase" unicode="&#x201a;" horiz-adv-x="208" 
d="M114 0q-17 3 -32 17t-15 32q0 20 14.5 34.5t34.5 14.5t34.5 -14.5t14.5 -34.5q0 -29 -4.5 -52t-16.5 -40.5t-32 -30t-51 -20.5l-11 32q29 11 45 25.5t19 36.5z" />
    <glyph glyph-name="quotedblleft" unicode="&#x201c;" horiz-adv-x="359" 
d="M101 606q17 -3 32 -17t15 -32q0 -20 -14.5 -34.5t-34.5 -14.5t-34.5 14.5t-14.5 34.5q0 58 21 92t83 51l11 -32q-29 -11 -45 -25.5t-19 -36.5zM245 606q17 -3 32 -17t15 -32q0 -20 -14.5 -34.5t-34.5 -14.5t-34.5 14.5t-14.5 34.5q0 58 21 92t83 51l11 -32
q-29 -11 -45 -25.5t-19 -36.5z" />
    <glyph glyph-name="quotedblright" unicode="&#x201d;" horiz-adv-x="359" 
d="M258 602q-17 3 -32 17t-15 32q0 20 14.5 34.5t34.5 14.5t34.5 -14.5t14.5 -34.5q0 -29 -4.5 -52t-16.5 -40.5t-32 -30t-51 -20.5l-11 32q29 11 45 25.5t19 36.5zM114 602q-17 3 -32 17t-15 32q0 20 14.5 34.5t34.5 14.5t34.5 -14.5t14.5 -34.5q0 -29 -4.5 -52
t-16.5 -40.5t-32 -30t-51 -20.5l-11 32q29 11 45 25.5t19 36.5z" />
    <glyph glyph-name="quotedblbase" unicode="&#x201e;" horiz-adv-x="348" 
d="M258 0q-17 3 -32 17t-15 32q0 20 14.5 34.5t34.5 14.5t34.5 -14.5t14.5 -34.5q0 -29 -4.5 -52t-16.5 -40.5t-32 -30t-51 -20.5l-11 32q29 11 45 25.5t19 36.5zM114 0q-17 3 -32 17t-15 32q0 20 14.5 34.5t34.5 14.5t34.5 -14.5t14.5 -34.5q0 -29 -4.5 -52t-16.5 -40.5
t-32 -30t-51 -20.5l-11 32q29 11 45 25.5t19 36.5z" />
    <glyph glyph-name="dagger" unicode="&#x2020;" horiz-adv-x="349" 
d="M345 500v-70h-136v-645h-70v645h-135v70h135v324h70v-324h136z" />
    <glyph glyph-name="daggerdbl" unicode="&#x2021;" horiz-adv-x="485" 
d="M481 500v-70h-204v-140h204v-70h-204v-435h-70v435h-202v70h202v140h-202v70h202v324h70v-324h204z" />
    <glyph glyph-name="bullet" unicode="&#x2022;" horiz-adv-x="228" 
d="M29 299q0 37 24.5 61.5t60.5 24.5q37 0 61.5 -24.5t24.5 -61.5q0 -36 -24.5 -60.5t-61.5 -24.5q-36 0 -60.5 24.5t-24.5 60.5z" />
    <glyph glyph-name="ellipsis" unicode="&#x2026;" horiz-adv-x="562" 
d="M75 36q0 20 14.5 34.5t34.5 14.5t34.5 -14.5t14.5 -34.5t-14.5 -34.5t-34.5 -14.5t-34.5 14.5t-14.5 34.5zM245 36q0 20 14.5 34.5t34.5 14.5t34.5 -14.5t14.5 -34.5t-14.5 -34.5t-34.5 -14.5t-34.5 14.5t-14.5 34.5zM425 36q0 20 14.5 34.5t34.5 14.5t34.5 -14.5
t14.5 -34.5t-14.5 -34.5t-34.5 -14.5t-34.5 14.5t-14.5 34.5z" />
    <glyph glyph-name="perthousand" unicode="&#x2030;" horiz-adv-x="496" 
d="M32 659q0 18 12 30t30 12t30 -12t12 -30t-12 -30t-30 -12t-30 12t-12 30zM251 42q0 18 12 30t30 12t30 -12t12 -30t-12 -30t-30 -12t-30 12t-12 30zM401 42q0 18 12 30t30 12t30 -12t12 -30t-12 -30t-30 -12t-30 12t-12 30zM104 0h-74l228 700h74z" />
    <glyph glyph-name="guilsinglleft" unicode="&#x2039;" horiz-adv-x="333" 
d="M252 498l49 -50l-199 -199l199 -199l-49 -50l-249 249z" />
    <glyph glyph-name="guilsinglright" unicode="&#x203a;" horiz-adv-x="332" 
d="M329 249l-249 -249l-49 50l199 199l-199 199l49 50z" />
    <glyph glyph-name="fraction" unicode="&#x2044;" horiz-adv-x="312" 
d="M7 -73l254 825h67l-254 -825h-67z" />
    <glyph glyph-name="Euro" unicode="&#x20ac;" horiz-adv-x="817" 
d="M45 329h91v20v16t1 16h-92v65h103q15 58 48 107t79 84t103 55t121 20q78 0 145 -28t116 -79l-51 -51q-40 41 -93.5 64t-116.5 23q-50 0 -93.5 -14.5t-79.5 -40t-62.5 -61.5t-41.5 -79h281v-65h-296q-1 -8 -1 -16v-16v-20h297v-65h-286q13 -46 39.5 -84.5t63.5 -66
t82.5 -42.5t96.5 -15q66 0 122 25t96 70l48 -53q-50 -53 -117.5 -82.5t-148.5 -29.5q-66 0 -124.5 20.5t-105 57.5t-78.5 88t-46 112h-100v65z" />
    <glyph glyph-name="trademark" unicode="&#x2122;" horiz-adv-x="581" 
d="M37 673v27h215v-27h-94v-247h-27v247h-94zM512 700h28v-274h-28v231l-99 -132l-102 132v-231h-28v274h28l102 -132z" />
    <glyph glyph-name="Delta" unicode="&#x2206;" horiz-adv-x="833" 
d="M214 1096l13 -38l-212 -70l-13 36z" />
    <glyph glyph-name="product" unicode="&#x220f;" horiz-adv-x="833" 
 />
    <glyph glyph-name="minus" unicode="&#x2212;" horiz-adv-x="547" 
d="M516 312v-66h-476v66h476z" />
    </font>
</defs>
</svg>
